<svg width="50" height="49" viewBox="0 0 50 49" fill="none" xmlns="http://www.w3.org/2000/svg">
<path d="M23.0527 17.7476V9.16317C25.0589 8.64232 26.5443 6.82898 26.5443 4.6491C26.5443 2.08342 24.4609 0 21.8952 0C19.3295 0 17.2461 2.08342 17.2461 4.6491C17.2461 6.80968 18.7315 8.64232 20.7378 9.16317V17.7476C18.3071 18.1141 16.243 19.6188 15.1048 21.7023L10.012 17.7283C10.1278 17.3811 10.2049 16.9953 10.2049 16.6095C10.2049 14.7575 8.70024 13.2528 6.84831 13.2528C4.99639 13.2528 3.4917 14.7575 3.4917 16.6095C3.4917 18.4614 4.99639 19.9661 6.84831 19.9661C7.46562 19.9661 8.04435 19.7925 8.52662 19.5031L14.2753 23.9786C14.1981 24.4416 14.1403 24.9045 14.1403 25.3868C14.1403 27.1037 14.6997 28.7048 15.6642 29.978L9.16322 36.4791C8.71953 36.9228 8.71953 37.6558 9.16322 38.1188C9.39471 38.3503 9.68407 38.466 9.97344 38.466C10.2628 38.466 10.5715 38.3503 10.7837 38.1188L17.304 31.6371C18.2878 32.3701 19.4646 32.8717 20.7378 33.0646V41.6683C19.4646 42.1313 18.5386 43.3659 18.5386 44.8127C18.5386 46.6647 20.0433 48.1693 21.8952 48.1693C23.7471 48.1693 25.2518 46.6647 25.2518 44.8127C25.2518 43.3659 24.3259 42.1313 23.0527 41.6683V33.0646C26.7758 32.5051 29.6501 29.2836 29.6501 25.4061C29.6501 21.5286 26.7951 18.3071 23.0527 17.7476ZM6.84831 17.6512C6.26959 17.6512 5.80661 17.1882 5.80661 16.6095C5.80661 16.0307 6.26959 15.5677 6.84831 15.5677C7.42704 15.5677 7.89002 16.0307 7.89002 16.6095C7.89002 17.1882 7.42704 17.6512 6.84831 17.6512ZM19.561 4.6491C19.561 3.35661 20.6027 2.31491 21.8952 2.31491C23.1877 2.31491 24.2294 3.35661 24.2294 4.6491C24.2294 5.94159 23.1877 6.9833 21.8952 6.9833C20.622 6.9833 19.561 5.94159 19.561 4.6491ZM21.8952 45.8544C21.3165 45.8544 20.8535 45.3915 20.8535 44.8127C20.8535 44.3112 21.22 43.8868 21.683 43.7903C21.7602 43.8096 21.818 43.8096 21.8952 43.8096C21.9724 43.8096 22.0302 43.8096 22.1074 43.7903C22.5897 43.8868 22.9369 44.3112 22.9369 44.8127C22.9369 45.3915 22.4739 45.8544 21.8952 45.8544ZM21.8952 30.8268C18.9051 30.8268 16.4552 28.3962 16.4552 25.3868C16.4552 24.866 16.5323 24.3451 16.6674 23.8628C16.6674 23.8435 16.6867 23.8242 16.6867 23.7857C17.3618 21.5672 19.4453 19.9468 21.8759 19.9468C24.866 19.9468 27.3159 22.3774 27.3159 25.3868C27.3352 28.3962 24.9046 30.8268 21.8952 30.8268Z" fill="#D30029"/>
<path d="M44.8128 14.1594C42.2471 14.1594 40.1637 16.2428 40.1637 18.8085C40.1637 18.9243 40.1637 19.04 40.183 19.1558L31.8107 22.0108C31.2127 22.223 30.8848 22.8789 31.097 23.4769C31.2706 23.9592 31.7143 24.2678 32.1965 24.2678C32.3123 24.2678 32.4473 24.2486 32.5631 24.21L40.9353 21.3549C41.7648 22.6281 43.1924 23.4576 44.8321 23.4576C47.3978 23.4576 49.4812 21.3742 49.4812 18.8085C49.4619 16.2428 47.3785 14.1594 44.8128 14.1594ZM44.8128 21.1427C43.5203 21.1427 42.4786 20.101 42.4786 18.8085C42.4786 17.516 43.5203 16.4743 44.8128 16.4743C46.1053 16.4743 47.147 17.516 47.147 18.8085C47.147 20.101 46.1053 21.1427 44.8128 21.1427Z" fill="#D30029"/>
<path d="M4.6491 38.0029C2.08342 38.0029 0 40.0863 0 42.652C0 45.2177 2.08342 47.3011 4.6491 47.3011C7.21479 47.3011 9.29821 45.2177 9.29821 42.652C9.29821 40.0863 7.21479 38.0029 4.6491 38.0029ZM4.6491 44.9862C3.35661 44.9862 2.31491 43.9445 2.31491 42.652C2.31491 41.3595 3.35661 40.3178 4.6491 40.3178C5.94159 40.3178 6.9833 41.3595 6.9833 42.652C6.9833 43.9445 5.94159 44.9862 4.6491 44.9862Z" fill="#D30029"/>
</svg>
