<svg width="33" height="31" viewBox="0 0 33 31" fill="none" xmlns="http://www.w3.org/2000/svg">
<path d="M32.6925 10.855L28.7592 6.5791V1.11305C28.7592 0.804479 28.6324 0.495912 28.3786 0.275507C28.1248 0.0551013 27.8288 -0.0330608 27.5327 0.0110203L0.888153 4.85994C0.380637 4.9481 0 5.38891 0 5.91788V17.0263V17.0704C0 17.6434 0.465223 18.1283 1.01503 18.1724L3.21427 18.6573V29.6335C3.21427 30.2065 3.67949 30.6914 4.2293 30.7355L10.7847 31H10.827C11.2922 31 11.7152 30.6914 11.842 30.2065L14.4219 21.214L27.4905 24.2556C27.575 24.2556 27.6596 24.2997 27.7019 24.2997C27.9557 24.2997 28.1671 24.2115 28.3786 24.0352C28.6324 23.8148 28.7592 23.5062 28.7592 23.1977V17.2908L32.7348 12.3537C33.1154 11.8688 33.0731 11.2517 32.6925 10.855ZM2.11465 6.84358L10.4464 5.34483V18.0843L2.11465 16.1888V6.84358ZM10.0234 28.7959L5.28663 28.6196V19.1863L12.3073 20.7732L10.0234 28.7959ZM26.6446 21.7871L12.561 18.5691V4.9481L26.6446 2.43548V21.7871ZM28.7592 13.8525V9.79701L30.5355 11.6925L28.7592 13.8525Z" fill="#D30029"/>
</svg>
