<svg width="20" height="14" viewBox="0 0 20 14" fill="none" xmlns="http://www.w3.org/2000/svg">
<path fill-rule="evenodd" clip-rule="evenodd" d="M6.63486 1.46439C6.72542 1.20088 6.89862 1.03806 7.11051 0.923403C7.51757 0.704213 7.95673 0.637252 8.4016 0.646887C9.03374 0.660857 9.66545 0.70614 10.2971 0.735526C10.5811 0.748533 10.8638 0.762021 11.1324 0.880528C11.5342 1.05733 11.7465 1.39213 11.7566 1.85412C11.7645 2.23036 11.7153 2.60756 11.7039 2.98524C11.6784 3.78974 11.6467 4.59328 11.6485 5.39682C11.6493 5.65069 11.7469 5.90601 11.808 6.157C11.8256 6.2283 11.8691 6.29237 11.9087 6.35451C12.0599 6.59442 12.1127 6.59249 12.3294 6.44219C12.7321 6.16278 13.0292 5.78076 13.3018 5.35731C13.6706 4.78501 13.9994 4.18958 14.2729 3.55851C14.545 2.92888 14.8193 2.29973 15.0751 1.66094C15.2022 1.34203 15.3982 1.20763 15.713 1.20907C16.8981 1.21775 18.0842 1.21678 19.2693 1.211C19.65 1.20907 19.9221 1.56556 19.8355 1.97504C19.745 2.40667 19.5674 2.79351 19.3581 3.16445C18.7695 4.21078 18.1167 5.20605 17.3711 6.12713C17.1091 6.45086 16.8735 6.79626 16.7522 7.21682C16.6203 7.67495 16.7043 8.07672 17.0155 8.41731C17.5672 9.01948 18.133 9.60672 18.6702 10.2248C18.9875 10.5919 19.2684 10.9975 19.5472 11.4007C19.7265 11.6584 19.8408 11.9557 19.8083 12.2943C19.7731 12.6715 19.5977 12.8671 19.2526 12.8869C18.5849 12.9254 17.9154 12.9538 17.2472 12.9866C16.8577 13.0063 16.4691 13.029 16.08 13.0468C15.7693 13.0608 15.4923 12.9365 15.2285 12.7713C14.8092 12.5077 14.4588 12.1493 14.1142 11.7842C13.7572 11.407 13.4262 11.0062 13.1598 10.5432C12.991 10.2498 12.5202 10.0899 12.2239 10.2113C11.9944 10.3052 11.885 10.5095 11.8617 10.7643C11.823 11.1839 11.8019 11.6064 11.7658 12.026C11.7219 12.5434 11.426 12.8642 10.9557 12.9341C10.0294 13.0694 9.11023 13.0189 8.19631 12.8233C7.52593 12.6783 6.94654 12.3247 6.3944 11.8955C5.63873 11.3101 4.99648 10.5943 4.39511 9.83506C4.08344 9.44004 3.81001 9.00599 3.54141 8.57243C2.68552 7.19418 1.87578 5.78365 1.16671 4.30665C0.826902 3.59897 0.486654 2.89082 0.307298 2.10799C0.266855 1.93216 0.245754 1.75055 0.213224 1.57182C0.197399 1.48318 0.227292 1.41767 0.301144 1.39213C0.493688 1.3271 0.686231 1.22931 0.881852 1.22112C1.51048 1.19173 2.1391 1.19558 2.76772 1.19125C3.0394 1.19029 3.31151 1.22064 3.58274 1.20426C3.94716 1.18354 4.1907 1.36805 4.34808 1.70189C4.50501 2.0367 4.64041 2.385 4.78987 2.72462C5.3253 3.94486 5.90513 5.1362 6.6586 6.21432C6.77026 6.3733 6.93599 6.49951 7.09776 6.60116C7.2903 6.72256 7.45955 6.65752 7.5778 6.45086C7.71627 6.20421 7.78177 5.92865 7.78617 5.63961C7.7976 4.82596 7.81958 4.01182 7.81166 3.19913C7.80243 2.35994 7.42218 1.80113 6.70212 1.49908C6.68366 1.48993 6.66519 1.47933 6.63486 1.46439Z" fill="#F44C4D"/>
</svg>
