<svg width="31" height="40" viewBox="0 0 31 40" fill="none" xmlns="http://www.w3.org/2000/svg">
<g clip-path="url(#clip0)">
<path d="M2.1 30.5V3.2C2.1 2.6 2.6 2.1 3.2 2.1H19L25.3 6.7V19.5C25.3 20.1 25.8 20.6 26.4 20.6C27 20.6 27.5 20.1 27.5 19.5V5.7C27.5 5.4 27.4 5.2 27.2 5L20.9 0.4C20.5 0.1 20.3 0 20 0H3.2C1.4 0 0 1.4 0 3.2V30.5C0 32.2 1.4 33.7 3.2 33.7H9.5C10.1 33.7 10.6 33.2 10.6 32.6C10.6 32 10.1 31.5 9.5 31.5H3.2C2.6 31.6 2.1 31.1 2.1 30.5ZM27 31.9C26.5 31.4 25.7 31.4 25.3 31.9L23.4 33.8V25.6H21V33.8L19 31.9C18.5 31.4 17.7 31.4 17.3 31.9C16.8 32.4 16.8 33.2 17.3 33.7L21.3 37.7C21.8 38.2 22.6 38.2 23 37.7L27 33.7C27.5 33.1 27.5 32.3 27 31.9ZM29.3 40H13.8C13.3 40 12.8 39.6 12.8 39C12.8 38.5 13.2 38 13.8 38H29.3C29.8 38 30.3 38.4 30.3 39C30.2 39.5 29.8 40 29.3 40ZM5.5 13.6H21C21.5 13.6 22 14 22 14.6C22 15.1 21.6 15.6 21 15.6H5.5C5 15.6 4.5 15.2 4.5 14.6C4.6 14 5 13.6 5.5 13.6ZM5.5 18.6H14C14.5 18.6 15 19 15 19.6C15 20.1 14.6 20.6 14 20.6H5.5C5 20.6 4.5 20.2 4.5 19.6C4.6 19 5 18.6 5.5 18.6ZM5.5 8.7H21C21.5 8.7 22 9.1 22 9.7C22 10.2 21.6 10.7 21 10.7H5.5C5 10.7 4.5 10.3 4.5 9.7C4.6 9.1 5 8.7 5.5 8.7Z" fill="#D30029"/>
</g>
<defs>
<clipPath id="clip0">
<rect width="30.2" height="40" fill="white"/>
</clipPath>
</defs>
</svg>
