<svg width="23" height="32" viewBox="0 0 23 32" fill="none" xmlns="http://www.w3.org/2000/svg">
<path d="M22.8014 0.976801C22.8014 0.429792 22.3644 0 21.8083 0H0.993092C0.715026 0 0.476684 0.117216 0.278066 0.312576C0.0794473 0.468864 0 0.742369 0 1.01587L0.516408 18.8718C0.516408 19.4188 0.953368 19.8095 1.5095 19.8095H1.74784H11.361L11.7185 26.8425L6.35579 30.1636C5.8791 30.4371 5.75993 31.0623 6.038 31.5311C6.23661 31.8046 6.5544 32 6.87219 32C7.07081 32 7.22971 31.9609 7.3886 31.8437L11.6788 29.1477V30.2808C11.6788 30.8278 12.1157 31.2576 12.6718 31.2576C13.228 31.2576 13.6649 30.8278 13.6649 30.2808V28.757L19.266 30.8669C19.3851 30.906 19.5043 30.9451 19.6235 30.9451C20.0207 30.9451 20.418 30.7106 20.5371 30.3199C20.7358 29.812 20.4974 29.265 19.981 29.0696L13.7047 26.6862L13.3471 19.8095H22.0069C22.285 19.8095 22.5233 19.6923 22.7219 19.536C22.9206 19.3407 23 19.1062 23 18.8327L22.8014 0.976801ZM3.49568 17.8559L4.64767 15.8632L6.15717 16.801C6.43523 16.9573 6.75302 16.9963 7.03109 16.8791C7.30915 16.7619 7.5475 16.5665 7.62694 16.254L8.73921 12.8547L11.0829 14.4957C11.3212 14.652 11.5993 14.7302 11.8774 14.652C12.1554 14.5739 12.3938 14.4176 12.513 14.1832L15.3731 9.06471C15.532 9.221 15.7703 9.29914 16.0086 9.29914H16.0484C16.5648 9.29914 17.0415 8.86935 17.0415 8.36142L17.1209 5.97802C17.1209 5.43101 16.7237 5.00122 16.1675 4.96215H16.1278H16.0881C15.9292 4.96215 15.7306 4.96215 15.5717 5.04029L13.2677 6.13431C12.791 6.36874 12.5527 6.95482 12.791 7.42369C12.9499 7.77534 13.3074 7.9707 13.6649 7.9707L11.2815 12.2295L8.73921 10.4322C8.50086 10.2369 8.14335 10.1978 7.86528 10.315C7.5475 10.4322 7.34888 10.6276 7.22971 10.9402L6.07772 14.4176L4.80656 13.6752C4.56822 13.5189 4.29016 13.4799 4.05181 13.558C3.77375 13.6361 3.57513 13.7924 3.41623 14.0269L2.38342 15.7851L2.02591 1.9536H20.8549L21.0138 17.8559H3.49568Z" fill="#D30029"/>
</svg>
