<svg width="11" height="21" viewBox="0 0 11 21" fill="none" xmlns="http://www.w3.org/2000/svg">
<path d="M10.3278 0.806274H7.95919C5.30636 0.806274 3.60097 2.70998 3.60097 5.66843V7.90657H1.23237C1.0192 7.90657 0.853394 8.08665 0.853394 8.31818V11.5596C0.853394 11.7911 1.0192 11.9712 1.23237 11.9712H3.60097V20.1777C3.60097 20.4093 3.76677 20.5893 3.97994 20.5893H7.08281C7.29598 20.5893 7.46179 20.4093 7.46179 20.1777V11.9712H10.233C10.4462 11.9712 10.612 11.7911 10.612 11.5596V8.31818C10.612 8.21528 10.5647 8.11237 10.4936 8.0352C10.4225 7.95802 10.3278 7.90657 10.233 7.90657H7.4381V6.00287C7.4381 5.07674 7.62759 4.61368 8.74083 4.61368H10.3278C10.541 4.61368 10.7068 4.4336 10.7068 4.20207V1.21789C10.7068 0.986354 10.541 0.806274 10.3278 0.806274Z" fill="#F44C4D"/>
</svg>
