<svg width="36" height="51" viewBox="0 0 36 51" fill="none" xmlns="http://www.w3.org/2000/svg">
<path d="M18 27.0724C14.5059 27.0724 11.6471 29.9962 11.6471 33.5698C11.6471 37.1434 14.5059 40.0672 18 40.0672C21.4941 40.0672 24.3529 37.1434 24.3529 33.5698C24.3529 29.9962 21.4941 27.0724 18 27.0724ZM18 38.0638C15.5647 38.0638 13.5529 36.0605 13.5529 33.5156C13.5529 31.025 15.5118 28.9675 18 28.9675C20.4353 28.9675 22.4471 30.9708 22.4471 33.5156C22.4471 36.0605 20.4353 38.0638 18 38.0638Z" fill="#D30029"/>
<path d="M18 29.1843C17.4705 29.1843 17.047 29.6174 17.047 30.1589V33.0827L15.4058 34.4905C15.1941 34.6529 15.0882 34.8695 15.0352 35.1402C15.0352 35.4109 15.0882 35.6817 15.247 35.8441C15.4058 36.0607 15.7235 36.2231 15.9882 36.2231C16.2 36.2231 16.4117 36.169 16.6235 36.0065L18.6352 34.328C18.847 34.1656 19.0058 33.8407 19.0058 33.57V30.213C18.9529 29.6174 18.5294 29.1843 18 29.1843Z" fill="#D30029"/>
<path d="M35.4706 40.0673C35.3118 40.0132 35.2059 39.959 35.0471 39.959C34.8353 39.959 34.6235 40.0131 34.4118 40.1756L30.1235 43.695L28.3235 42.0165V19.7629C28.3235 19.3298 28.0588 18.9507 27.6882 18.8425C27.5824 18.7883 27.4765 18.7883 27.3706 18.7883C27.0529 18.7883 26.7882 18.9508 26.6294 19.1673L25.9941 20.0336L18.9529 10.45V10.1251L20.4353 11.3163C20.5941 11.4787 20.8059 11.5329 21.0706 11.5329C21.6 11.5329 22.0235 11.0997 22.0235 10.5583C22.0235 10.3958 21.9706 10.2334 21.9176 10.071L20.8588 7.20128L23.5059 5.46864C23.8235 5.19792 23.9824 4.76476 23.8235 4.3316C23.6647 3.89844 23.3471 3.62771 22.9235 3.62771L19.7471 3.79015L18.9529 0.703885C18.8471 0.32487 18.4235 0 18 0C17.5765 0 17.2059 0.32487 17.0471 0.703885L16.2529 3.79015L13.0765 3.62771C12.6529 3.62771 12.2824 3.89844 12.1765 4.3316C12.0176 4.76476 12.2294 5.19792 12.5471 5.46864L15.1941 7.20128L14.0824 10.1793C13.9235 10.6124 14.0824 11.0456 14.4 11.3163C14.5588 11.4246 14.7706 11.4787 14.9824 11.4787C15.1941 11.4787 15.4059 11.4246 15.5647 11.2622L17.0471 10.071V10.3958L10.0588 20.0336L9.42353 19.1673C9.26471 18.9508 8.94706 18.7883 8.68235 18.7883C8.57647 18.7883 8.47059 18.7883 8.36471 18.8425C7.99412 19.0049 7.72941 19.3298 7.72941 19.7629V41.8541L5.50588 43.695L1.74706 40.2297C1.58824 40.0673 1.32353 39.959 1.05882 39.959C0.9 39.959 0.794118 40.0132 0.635294 40.0673C0.211765 40.2297 0 40.6087 0 40.9878V50.3548H1.95882V43.2619L4.71176 45.8067C4.87059 45.9691 5.13529 46.0774 5.4 46.0774C5.61176 46.0774 5.82353 46.0232 6.03529 45.8608L9.37059 43.0994V49.4885C9.37059 50.03 9.79412 50.5173 10.3765 50.5173H13.3941C13.9235 50.5173 14.4 50.0841 14.4 49.4885V43.2619L17.1529 45.8067C17.3118 45.9691 17.5765 46.0774 17.8412 46.0774C18.0529 46.0774 18.2647 46.0232 18.4765 45.8608L21.8118 43.0994V49.4885C21.8118 50.03 22.2353 50.5173 22.8176 50.5173H25.8353C26.3647 50.5173 26.8412 50.0841 26.8412 49.4885V43.2619L29.5941 45.8067C29.7529 45.9691 30.0176 46.0774 30.2824 46.0774C30.4941 46.0774 30.7059 46.0232 30.9177 45.8608L34.2529 43.0994V50.3548H36V40.9878C36 40.6087 35.7882 40.2297 35.4706 40.0673ZM25.3059 40.0673C24.9353 40.2297 24.7235 40.6087 24.7235 40.9878V48.5139H23.6647V40.9878C23.6647 40.6087 23.4529 40.2297 23.0824 40.0673C22.9235 40.0132 22.8176 39.959 22.6588 39.959C22.4471 39.959 22.2353 40.0131 22.0235 40.1756L17.7353 43.695L13.9765 40.2297C13.8176 40.0673 13.5529 39.959 13.2882 39.959C13.1294 39.959 13.0235 40.0132 12.8647 40.0673C12.4941 40.2297 12.2824 40.6087 12.2824 40.9878V48.5139H11.2235V40.9878C11.2235 40.6087 11.0118 40.2297 10.6412 40.0673C10.4824 40.0132 10.3765 39.959 10.2176 39.959C10.0059 39.959 9.79412 40.0131 9.58235 40.1756L9.47647 40.2839V22.6868L12.4412 26.5852C12.6 26.8018 12.9176 26.9642 13.1824 26.9642C13.5 26.9642 13.7647 26.8559 13.9235 26.5852L17.8412 21.4414L21.7588 26.5852C21.9176 26.8018 22.2353 26.9642 22.5 26.9642C22.8176 26.9642 23.0824 26.8559 23.2412 26.5852L26.2059 22.6868V40.338L26.1529 40.2839C25.9941 40.1214 25.7294 40.0132 25.4647 40.0132C25.5706 39.959 25.4118 40.0132 25.3059 40.0673ZM22.7118 24.3652L18.7941 19.2215C18.6353 19.0049 18.3176 18.8425 18.0529 18.8425C17.7882 18.8425 17.4706 18.9507 17.3118 19.2215L13.3412 24.3652L11.3824 21.7663L18 12.9948L24.6176 21.7663L22.7118 24.3652Z" fill="#D30029"/>
</svg>
