<svg width="41" height="25" viewBox="0 0 41 25" fill="none" xmlns="http://www.w3.org/2000/svg">
<path d="M39.9821 6.37363L20.9807 0.0824176C20.6697 -0.0274725 20.3303 -0.0274725 20.0193 0.0824176L0.989655 6.37363C0.395862 6.56593 0 7.11539 0 7.71978C0 8.32418 0.395862 8.87363 0.989655 9.06593L8.39793 11.5385V18.9835C8.39793 19.3407 8.53931 19.6703 8.79379 19.9451C11.791 23.1593 16.089 25 20.5848 25C25.0241 25 29.1524 23.2692 32.2062 20.1374C32.4607 19.8626 32.6021 19.533 32.6021 19.1484V11.5385L35.6559 10.522V14.1209C35.3166 14.3681 35.0903 14.7802 35.0903 15.2473V18.7363C35.0903 19.533 35.7407 20.1648 36.5607 20.1648C37.3807 20.1648 38.031 19.533 38.031 18.7363V15.2473C38.031 14.7802 37.8048 14.3956 37.4655 14.1209V9.91758L40.0103 9.06593C40.6041 8.87363 41 8.32418 41 7.71978C41 7.11539 40.6041 6.56593 39.9821 6.37363ZM29.6614 18.5714C27.2297 20.8791 24.0062 22.1429 20.5848 22.1429C17.1069 22.1429 13.7703 20.7967 11.3386 18.4066V12.5L20.0759 15.3846C20.2172 15.4396 20.3869 15.467 20.5566 15.467C20.7262 15.467 20.8676 15.4396 21.0372 15.3846L29.6897 12.5275L29.6614 18.5714ZM20.5283 12.5275L6.02276 7.71978L20.4717 2.93956L34.949 7.71978L20.5283 12.5275Z" fill="#D30029"/>
</svg>
