<svg width="33" height="41" viewBox="0 0 33 41" fill="none" xmlns="http://www.w3.org/2000/svg">
<path d="M8.19655 15.6032V24.6268H10.2169V21.8816H11.9696C13.9326 21.8816 15.2902 20.6309 15.2902 18.7549C15.2902 16.8538 13.99 15.6032 12.078 15.6032H8.19655ZM10.2169 17.2353H11.5426C12.6197 17.2353 13.2443 17.7606 13.2443 18.7611C13.2443 19.7429 12.607 20.2744 11.5298 20.2744H10.2169V17.2353Z" fill="#FF7D97"/>
<path d="M16.9982 15.5969V24.6268H20.6693C23.429 24.6268 24.9841 22.9821 24.9841 20.0431C24.9841 17.2165 23.4099 15.5969 20.6693 15.5969H16.9982ZM19.0186 17.2978H20.3379C21.9631 17.2978 22.9255 18.3046 22.9255 20.0743C22.9255 21.9378 22.0014 22.9259 20.3379 22.9259H19.0186V17.2978Z" fill="#FF7D97"/>
<path d="M28.7699 24.6268V21.1687H32.4665V19.5428H28.7699V17.3041H32.8234V15.6032H26.7496V24.6268H28.7699Z" fill="#FF7D97"/>
<path d="M2.912 30.5014V3.15557C2.912 2.5771 3.38529 2.1038 3.96376 2.1038H19.7402V6.31086C19.7402 7.47437 20.6802 8.41439 21.8438 8.41439H26.0508V10.5179C26.0508 11.0988 26.5217 11.5697 27.1026 11.5697C27.6834 11.5697 28.1543 11.0988 28.1543 10.5179V7.36262C28.1543 7.07996 28.0492 6.81702 27.852 6.61324L21.5414 0.302657C21.3442 0.105451 21.0746 -0.00629892 20.792 0.000274605H3.96376C2.22178 0.000274605 0.808472 1.41358 0.808472 3.15557V30.5014C0.808472 32.2434 2.22178 33.6567 3.96376 33.6567H10.2743C10.8552 33.6567 11.3261 33.1858 11.3261 32.605C11.3261 32.0241 10.8552 31.5532 10.2743 31.5532H3.96376C3.38529 31.5532 2.912 31.0799 2.912 30.5014Z" fill="#FF7D97"/>
<path d="M30.4308 34.8369C29.9562 34.3552 29.1753 34.3552 28.7007 34.8369L26.8174 36.7482V28.7612H24.3676V36.7482L22.4767 34.8369C22.002 34.3552 21.2212 34.3552 20.7465 34.8369C20.2719 35.3186 20.2719 36.1111 20.7465 36.5928L24.7198 40.6329C25.2021 41.1224 25.9753 41.1224 26.4576 40.6329L30.4385 36.5928C30.9131 36.1033 30.9131 35.3186 30.4308 34.8369Z" fill="#FF7D97"/>
</svg>
