<svg width="21" height="21" viewBox="0 0 21 21" fill="none" xmlns="http://www.w3.org/2000/svg">
<path d="M14.8665 20.0792H6.28107C3.16255 20.0792 0.612183 17.5868 0.612183 14.5116V6.0795C0.612183 3.01667 3.16255 0.511841 6.28107 0.511841H14.8665C17.9976 0.511841 20.5354 3.01667 20.5354 6.0795V14.5116C20.5354 17.5868 17.9976 20.0792 14.8665 20.0792ZM6.28107 2.18586C4.09685 2.18586 2.31664 3.93428 2.31664 6.0795V14.5116C2.31664 16.6568 4.09685 18.4052 6.28107 18.4052H14.8665C17.0507 18.4052 18.8309 16.6568 18.8309 14.5116V6.0795C18.8309 3.93428 17.0507 2.18586 14.8665 2.18586H6.28107Z" fill="#F44C4D"/>
<path d="M10.5738 15.3056C7.75825 15.3056 5.47302 13.0611 5.47302 10.2959C5.47302 7.53068 7.75825 5.28625 10.5738 5.28625C13.3893 5.28625 15.6745 7.53068 15.6745 10.2959C15.6745 13.0611 13.3893 15.3056 10.5738 15.3056ZM10.5738 6.96027C8.70517 6.96027 7.17748 8.46069 7.17748 10.2959C7.17748 12.1311 8.70517 13.6315 10.5738 13.6315C12.4423 13.6315 13.97 12.1311 13.97 10.2959C13.97 8.46069 12.4423 6.96027 10.5738 6.96027Z" fill="#F44C4D"/>
<path d="M17.1266 5.00115C17.1266 5.67076 16.5837 6.20397 15.9019 6.20397C15.2201 6.20397 14.6772 5.67076 14.6772 5.00115C14.6772 4.33155 15.2201 3.79834 15.9019 3.79834C16.5711 3.79834 17.1266 4.33155 17.1266 5.00115Z" fill="#F44C4D"/>
</svg>
