<svg width="33" height="41" viewBox="0 0 33 41" fill="none" xmlns="http://www.w3.org/2000/svg">
<path d="M2.75308 30.5V3.2C2.75308 2.6 3.24767 2.1 3.84119 2.1H19.4704V6.3C19.4704 7.5 20.3606 8.4 21.5477 8.4H25.7023V10.5C25.7023 11.1 26.1969 11.6 26.7904 11.6C27.3839 11.6 27.8785 11.1 27.8785 10.5V7.4C27.8785 7.1 27.7796 6.9 27.5817 6.7L21.3498 0.4C20.9542 0.1 20.7563 0 20.4596 0H3.84119C2.06065 0 0.675781 1.4 0.675781 3.2V30.5C0.675781 32.2 2.06065 33.7 3.84119 33.7H10.0731C10.6666 33.7 11.1612 33.2 11.1612 32.6C11.1612 32 10.6666 31.5 10.0731 31.5H3.84119C3.24767 31.6 2.75308 31.1 2.75308 30.5ZM29.9558 34.8C29.4612 34.3 28.6698 34.3 28.2742 34.8L26.3947 36.7V28.7H24.0206V36.7L22.1412 34.8C21.6466 34.3 20.8552 34.3 20.4596 34.8C19.965 35.3 19.965 36.1 20.4596 36.6L24.4163 40.6C24.9109 41.1 25.7023 41.1 26.0979 40.6L30.0547 36.6C30.4504 36.1 30.4504 35.3 29.9558 34.8ZM19.3715 24.7H11.5569V23.5L16.5028 17.2H11.9525V15.5H19.3715V16.7L14.5244 23.1H19.3715V24.7ZM23.0315 24.7H20.8552V15.6H23.0315V24.7ZM27.3839 21.6V24.7H25.2077V15.6H28.5709C31.0439 15.6 32.2309 16.6 32.2309 18.5C32.2309 19.4 31.8352 20.2 31.1428 20.7C30.4504 21.3 29.4612 21.5 28.3731 21.5H27.3839V21.6ZM27.3839 17.2V20H28.2742C29.4612 20 30.0547 19.5 30.0547 18.6C30.0547 17.7 29.4612 17.2 28.2742 17.2H27.3839ZM8.58929 14.6C8.88605 14.6 9.18281 14.3 9.18281 14V13C9.18281 12.7 8.88605 12.4 8.58929 12.4H7.00659V14.6H8.58929ZM4.83038 15.2V16.3C4.83038 16.6 5.12713 16.9 5.42389 16.9H7.00659V14.7H5.32497C5.02821 14.6 4.83038 14.9 4.83038 15.2ZM8.58929 19C8.88605 19 9.18281 18.7 9.18281 18.4V17.3C9.18281 17 8.88605 16.7 8.58929 16.7H7.00659V19H8.58929ZM4.83038 19.6V20.7C4.83038 21 5.12713 21.3 5.42389 21.3H6.512C6.80875 21.3 7.10551 21 7.10551 20.7V19H5.32497C5.02821 19 4.83038 19.3 4.83038 19.6ZM8.39146 22.4H5.52281C5.12713 22.4 4.73146 22.7 4.73146 23.2V28C4.73146 28.4 5.02821 28.8 5.52281 28.8H8.39146C8.78713 28.8 9.18281 28.5 9.18281 28V23.2C9.18281 22.8 8.78713 22.4 8.39146 22.4ZM8.0947 27.6H5.91848V26.5H8.0947V27.6ZM4.83038 11.9V10.3H7.00659V12.5H5.32497C5.02821 12.4 4.83038 12.2 4.83038 11.9Z" fill="#5AB14C"/>
</svg>
