<svg width="30" height="30" viewBox="0 0 30 30" fill="none" xmlns="http://www.w3.org/2000/svg">
<path fill-rule="evenodd" clip-rule="evenodd" d="M30 15.1655V14.9997V14.8345C23.3579 14.6335 20.3205 14.4678 17.898 12.1017C15.5326 9.67967 15.3662 6.64239 15.1658 0H15H14.8342C14.6338 6.64239 14.4674 9.67967 12.1019 12.1017C9.6794 14.4678 6.64201 14.6335 0 14.8345V14.9997V15.1655C6.64201 15.3664 9.6794 15.5322 12.1019 17.8978C14.4674 20.3203 14.6338 23.3576 14.8342 30H15H15.1658C15.3662 23.3576 15.5326 20.3203 17.898 17.8978C20.3205 15.5322 23.3579 15.3664 30 15.1655Z" fill="#F44C4D"/>
</svg>
