<svg width="27" height="37" viewBox="0 0 27 37" fill="none" xmlns="http://www.w3.org/2000/svg">
<path d="M12.3394 15.9119C12.1786 15.9119 12.0178 15.9623 11.8771 16.043C11.6159 16.2043 11.4551 16.4968 11.4551 16.7994V22.8507C11.4551 23.1532 11.6159 23.4457 11.8771 23.6071C12.0178 23.6979 12.1786 23.7382 12.3394 23.7382C12.48 23.7382 12.6107 23.7079 12.7313 23.6474L18.7603 20.6218C19.0617 20.4705 19.2527 20.1679 19.2527 19.825C19.2527 19.4821 19.0617 19.1796 18.7603 19.0283L12.7313 16.0026C12.6207 15.9421 12.48 15.9119 12.3394 15.9119ZM13.2337 21.4185V18.2517L16.3889 19.8351L13.2337 21.4185Z" fill="#D30029"/>
<path d="M23.9754 3.19423V0.806838V0.786667C23.8951 0.33282 23.5132 0 23.051 0H19.5341C19.0216 0 18.5996 0.42359 18.5996 0.937949V1.41197V1.42205V3.20431H0V36.1737H27V3.19423H23.9754ZM3.61742 4.97936V34.3886H1.77856V4.97936H3.61742ZM19.0618 9.70944C19.1924 9.78004 19.3331 9.82038 19.4838 9.82038C19.6546 9.82038 19.8255 9.76995 19.9762 9.6691L21.2925 8.79166L22.5888 9.65901C22.7194 9.74978 22.8601 9.80021 23.0007 9.82038C23.0309 9.82038 23.0711 9.83046 23.1012 9.83046C23.5333 9.83046 23.9051 9.51781 23.9754 9.08414V9.06397V4.97936H25.2214V34.3886H5.39598V4.97936H18.5895V8.92277C18.5895 9.25559 18.7704 9.55816 19.0618 9.70944ZM22.2069 7.25868L21.7748 6.97628C21.6241 6.87543 21.4633 6.825 21.2825 6.825C21.1016 6.825 20.9408 6.87543 20.7901 6.97628L20.358 7.25868V4.97936H22.2069V7.25868ZM20.3681 3.19423V1.77504H22.2069V3.19423H20.3681Z" fill="#D30029"/>
</svg>
