<svg width="23" height="28" viewBox="0 0 23 28" fill="none" xmlns="http://www.w3.org/2000/svg">
<path d="M1.31119 28C0.576923 28 0 27.3684 0 26.6842V14.6316V1.31579C0 0.578947 0.576923 0 1.31119 0H21.1888C21.6608 0 22.0804 0.263158 22.2902 0.631579C22.5524 1.05263 22.5524 1.52632 22.3427 1.94737L19.1434 7.89474L22.3427 14.4211C22.5524 14.8421 22.5 15.3158 22.2902 15.6842C22.028 16.1053 21.6084 16.3158 21.1888 16.3158L2.62238 15.9474V26.6316C2.62238 27.3684 2.04545 28 1.31119 28ZM2.62238 13.3158L19.0385 13.6316L16.4685 8.42105C16.2587 8.05263 16.3112 7.57895 16.4685 7.21053L18.986 2.63158H2.62238V13.3158Z" fill="#D30029"/>
</svg>
