<svg width="54" height="51" viewBox="0 0 54 51" fill="none" xmlns="http://www.w3.org/2000/svg">
<g clip-path="url(#clip0)">
<path d="M53.9995 12.6981C53.8686 12.1744 53.3449 11.8471 52.8213 11.9781L33.6431 16.3635H16.6904L10.7995 0.654417C10.734 0.392599 10.4722 0.196236 10.2758 0.0653265C10.014 -0.0655826 9.7522 -0.000128051 9.49038 0.0653265L0.588563 4.31987C0.0649268 4.58169 -0.131437 5.17078 0.0649268 5.62896C0.326745 6.08714 0.915836 6.34896 1.37402 6.08714L6.02129 3.86169L10.4067 20.5526L1.89765 22.7781C1.57038 22.8435 1.30856 23.1053 1.24311 23.4326C1.1122 23.7599 1.17765 24.0871 1.37402 24.349L7.5922 32.2035L4.18856 43.6581C4.05765 44.1817 4.31947 44.7053 4.84311 44.9017C4.90856 44.9017 5.03947 44.9671 5.10493 44.9671C5.49765 44.9671 5.89038 44.7053 6.02129 44.2471L9.0322 34.1671L11.3886 37.1781C11.7158 37.6362 12.3704 37.7017 12.7631 37.3744C13.2213 37.0471 13.2867 36.3926 12.9595 35.9999L9.7522 31.9417L12.5013 22.7781L26.7049 24.4799L33.6431 43.8544C33.774 44.2471 34.1667 44.509 34.5595 44.509C34.6904 44.509 34.7558 44.509 34.8867 44.4435C35.4104 44.2471 35.6722 43.7235 35.4758 43.1999L28.9304 24.7417L31.9413 25.1344L39.2067 43.8544C39.3377 44.2471 39.7304 44.509 40.1231 44.509C40.254 44.509 40.3849 44.509 40.4504 44.4435C40.974 44.2471 41.2358 43.6581 41.0395 43.1999L33.6431 24.0871L34.6249 18.1962L53.2795 13.8762C53.8031 13.7453 54.1304 13.2217 53.9995 12.6981ZM9.29402 2.35624L14.5958 16.3635H11.3231L7.85402 3.01078L9.29402 2.35624ZM12.5013 20.749L11.8467 18.3271H15.3158L16.4286 21.2071L12.5013 20.749ZM3.86129 24.349L10.4722 22.5817L8.24674 29.9126L3.86129 24.349ZM27.0322 19.4399C26.8358 18.9162 26.3122 18.6544 25.7886 18.8508C25.2649 19.0471 25.0031 19.5708 25.1995 20.0944L25.9849 22.3853L18.5886 21.469L17.4104 18.3271H32.5958L31.8104 23.1053L28.1449 22.6471L27.0322 19.4399Z" fill="#D30029"/>
</g>
<defs>
<clipPath id="clip0">
<rect width="54" height="44.9018" fill="white"/>
</clipPath>
</defs>
</svg>