<svg width="72" height="62" viewBox="0 0 72 62" fill="none" xmlns="http://www.w3.org/2000/svg">
<path d="M42.0684 25.2822L13.583 24.8593C12.8526 24.8593 12.2266 24.2251 12.2266 23.3794C12.2266 22.6394 12.8526 22.0052 13.583 22.0052L41.9641 22.5337C42.6945 22.5337 43.3205 23.168 43.3205 24.0137C43.4249 24.6479 42.7988 25.2822 42.0684 25.2822Z" fill="#E21A2B"/>
<path d="M43.1135 34.902C43.0092 34.902 43.0092 34.902 42.9048 34.902L14.1064 30.7794C13.376 30.6737 12.8543 29.9337 12.9586 29.1938C13.0629 28.4538 13.7933 27.9253 14.5237 28.031L43.3222 32.1536C44.0526 32.2593 44.5743 32.9993 44.47 33.7393C44.47 34.3735 43.8439 34.902 43.1135 34.902Z" fill="#E21A2B"/>
<path d="M43.3132 34.7964H43.2088C42.4784 34.6907 41.8524 34.0565 41.9567 33.2108L42.8958 24.1199C43.0001 23.3799 43.6262 22.7456 44.4609 22.8514C45.1913 22.9571 45.8174 23.5913 45.713 24.437L44.774 33.5279C44.5653 34.2679 44.0436 34.7964 43.3132 34.7964Z" fill="#E21A2B"/>
<path d="M42.6919 25.2823C42.0658 25.2823 41.4398 24.8594 41.3354 24.1195C41.1267 23.3795 41.6485 22.6396 42.3789 22.4281L69.2991 16.297C70.0295 16.0856 70.7599 16.6142 70.9686 17.3541C71.1773 18.0941 70.6556 18.834 69.9252 19.0455L43.0049 25.1766C42.9006 25.2823 42.7962 25.2823 42.6919 25.2823Z" fill="#E21A2B"/>
<path d="M53.1269 60.6951C52.6052 60.6951 52.0835 60.378 51.7704 59.7437L41.7536 33.4223C41.4406 32.6823 41.8579 31.8366 42.5883 31.6252C43.3187 31.3081 44.1535 31.7309 44.3621 32.4709L54.379 58.7923C54.692 59.5323 54.2747 60.378 53.5443 60.5894C53.4399 60.5894 53.2312 60.6951 53.1269 60.6951Z" fill="#E21A2B"/>
<path d="M45.5075 60.1666C44.8815 60.1666 44.3598 59.8495 44.1511 59.2153L33.0908 27.8198C32.8821 27.0798 33.1952 26.2341 33.9255 26.0227C34.6559 25.7056 35.4907 26.1284 35.6994 26.8684L46.7596 58.2639C47.0727 59.0038 46.6553 59.8495 45.9249 60.0609C45.8206 60.1666 45.7162 60.1666 45.5075 60.1666Z" fill="#E21A2B"/>
<path d="M2.10594 33.8447C1.47989 33.8447 0.958178 33.4219 0.749494 32.7876C0.54081 32.0477 1.06252 31.3077 1.79292 31.0963L13.8966 28.0307C14.627 27.8193 15.4617 28.3479 15.5661 29.0878C15.7748 29.8278 15.2531 30.5677 14.5227 30.7792L2.52331 33.8447C2.41897 33.8447 2.21028 33.8447 2.10594 33.8447Z" fill="#E21A2B"/>
<path d="M14.8322 50.7583C14.4148 50.7583 13.9974 50.5468 13.6844 50.2297L1.05902 33.3163C0.641646 32.6821 0.745988 31.8364 1.37204 31.3079C1.99809 30.7793 2.83283 30.9907 3.35454 31.625L16.0843 48.5384C16.5017 49.1726 16.3973 50.0183 15.7713 50.5468C15.4582 50.6526 15.1452 50.7583 14.8322 50.7583Z" fill="#E21A2B"/>
<path d="M5.86329 61.0119C5.75895 61.0119 5.55027 61.0119 5.44592 60.9062C4.71553 60.6948 4.29816 59.8491 4.50684 59.1091L13.8976 28.8765C14.1063 28.1365 14.9411 27.7137 15.6715 27.9251C16.4019 28.1365 16.8192 28.9822 16.6105 29.7221L7.21974 59.9548C7.01106 60.6948 6.385 61.0119 5.86329 61.0119Z" fill="#E21A2B"/>
<path d="M15.2505 30.8853C14.6244 30.8853 14.1027 30.4624 13.894 29.8282L7.11177 4.03525C6.90309 3.29529 7.32046 2.55533 8.1552 2.34392C8.88559 2.1325 9.72033 2.55533 9.82467 3.401L16.6069 29.0882C16.8156 29.8282 16.3982 30.6738 15.5635 30.7795C15.4591 30.7795 15.3548 30.8853 15.2505 30.8853Z" fill="#E21A2B"/>
<path d="M22.4495 30.0392C21.9277 30.0392 21.3017 29.7221 21.093 29.0879L11.2848 2.02644C10.9718 1.28648 11.3892 0.440812 12.1196 0.229395C12.85 -0.0877315 13.6847 0.335103 13.8934 1.07506L23.8059 28.2422C24.1189 28.9822 23.7016 29.8278 22.9712 30.0392C22.7625 30.0392 22.6581 30.0392 22.4495 30.0392Z" fill="#E21A2B"/>
<path d="M1.37491 8.15827C0.853197 8.15827 0.331486 7.84114 0.122802 7.3126C-0.190225 6.57264 0.122802 5.72697 0.748855 5.40984L11.9135 0.12441C12.6439 -0.192716 13.4786 0.12441 13.7916 0.758662C14.1047 1.49862 13.7916 2.34429 13.1656 2.66142L2.00096 7.94685C1.79228 8.15827 1.58359 8.15827 1.37491 8.15827Z" fill="#E21A2B"/>
</svg>
