<svg width="260" height="71" viewBox="0 0 260 71" fill="none" xmlns="http://www.w3.org/2000/svg">
<path d="M48.2794 29.0153L15.588 28.5301C14.7497 28.5301 14.0312 27.8022 14.0312 26.8316C14.0312 25.9824 14.7497 25.2545 15.588 25.2545L48.1597 25.8611C48.9979 25.8611 49.7164 26.589 49.7164 27.5595C49.8362 28.2874 49.1177 29.0153 48.2794 29.0153Z" fill="#E21A2B"/>
<path d="M49.4782 40.0554C49.3584 40.0554 49.3584 40.0554 49.2387 40.0554L16.188 35.324C15.3497 35.2027 14.751 34.3535 14.8707 33.5042C14.9905 32.655 15.8287 32.0484 16.667 32.1698L49.7177 36.9011C50.5559 37.0224 51.1546 37.8717 51.0349 38.7209C51.0349 39.4488 50.3164 40.0554 49.4782 40.0554Z" fill="#E21A2B"/>
<path d="M49.7144 39.934H49.5946C48.7564 39.8127 48.0379 39.0848 48.1576 38.1143L49.2354 27.681C49.3551 26.8318 50.0736 26.1039 51.0316 26.2252C51.8698 26.3465 52.5883 27.0744 52.4686 28.0449L51.3909 38.4782C51.1514 39.3274 50.5526 39.934 49.7144 39.934Z" fill="#E21A2B"/>
<path d="M48.9967 29.0153C48.2782 29.0153 47.5597 28.53 47.4399 27.6808C47.2004 26.8316 47.7992 25.9824 48.6374 25.7397L79.5326 18.7033C80.3709 18.4607 81.2091 19.0673 81.4486 19.9165C81.6881 20.7657 81.0894 21.6149 80.2511 21.8576L49.3559 28.894C49.2362 29.0153 49.1164 29.0153 48.9967 29.0153Z" fill="#E21A2B"/>
<path d="M60.9741 69.6568C60.3754 69.6568 59.7766 69.2929 59.4174 68.565L47.9215 38.357C47.5622 37.5078 48.0412 36.5373 48.8795 36.2946C49.7177 35.9307 50.6757 36.4159 50.9152 37.2652L62.4111 67.4731C62.7703 68.3224 62.2913 69.2929 61.4531 69.5355C61.3333 69.5355 61.0938 69.6568 60.9741 69.6568Z" fill="#E21A2B"/>
<path d="M52.2292 69.0504C51.5107 69.0504 50.912 68.6864 50.6725 67.9585L37.9791 31.9273C37.7396 31.0781 38.0988 30.1076 38.9371 29.8649C39.7753 29.501 40.7333 29.9863 40.9728 30.8355L53.6662 66.8667C54.0254 67.7159 53.5464 68.6864 52.7082 68.9291C52.5885 69.0504 52.4687 69.0504 52.2292 69.0504Z" fill="#E21A2B"/>
<path d="M2.41464 38.8421C1.69615 38.8421 1.0974 38.3568 0.857903 37.6289C0.618405 36.7797 1.21715 35.9305 2.05539 35.6878L15.9463 32.1696C16.7845 31.927 17.7425 32.5336 17.8623 33.3828C18.1017 34.232 17.503 35.0812 16.6648 35.3239L2.89364 38.8421C2.77389 38.8421 2.53439 38.8421 2.41464 38.8421Z" fill="#E21A2B"/>
<path d="M17.0239 58.253C16.5449 58.253 16.066 58.0103 15.7067 57.6464L1.21708 38.2356C0.738089 37.5077 0.857838 36.5372 1.57633 35.9306C2.29483 35.324 3.25282 35.5666 3.85156 36.2945L18.4609 55.7053C18.9399 56.4332 18.8202 57.4037 18.1017 58.0103C17.7424 58.1316 17.3832 58.253 17.0239 58.253Z" fill="#E21A2B"/>
<path d="M6.72776 70.0206C6.60801 70.0206 6.36851 70.0206 6.24877 69.8992C5.41052 69.6566 4.93153 68.6861 5.17103 67.8369L15.9484 33.1402C16.1879 32.2909 17.1459 31.8057 17.9842 32.0483C18.8224 32.2909 19.3014 33.2615 19.0619 34.1107L8.2845 68.8074C8.045 69.6566 7.32651 70.0206 6.72776 70.0206Z" fill="#E21A2B"/>
<path d="M17.503 35.4454C16.7845 35.4454 16.1858 34.9601 15.9463 34.2322L8.16259 4.63084C7.9231 3.78162 8.40209 2.9324 9.36008 2.68976C10.1983 2.44713 11.1563 2.9324 11.2761 3.90293L19.0597 33.383C19.2992 34.2322 18.8202 35.2028 17.8623 35.3241C17.7425 35.3241 17.6228 35.4454 17.503 35.4454Z" fill="#E21A2B"/>
<path d="M25.7658 34.4748C25.1671 34.4748 24.4486 34.1108 24.2091 33.3829L12.9527 2.3257C12.5935 1.47648 13.0725 0.505947 13.9107 0.263313C14.7489 -0.100639 15.7069 0.38463 15.9464 1.23385L27.3226 32.4124C27.6818 33.2616 27.2028 34.2321 26.3646 34.4748C26.1251 34.4748 26.0053 34.4748 25.7658 34.4748Z" fill="#E21A2B"/>
<path d="M1.57792 9.36288C0.979177 9.36288 0.380432 8.99893 0.140934 8.39234C-0.218313 7.54312 0.140934 6.57259 0.859428 6.20864L13.6726 0.14278C14.5108 -0.221171 15.4688 0.14278 15.828 0.870683C16.1873 1.7199 15.828 2.69044 15.1096 3.05439L2.29641 9.12025C2.05692 9.36288 1.81742 9.36288 1.57792 9.36288Z" fill="#E21A2B"/>
<g clip-path="url(#clip0)">
<path d="M99.4 24.7H98.3C98.4 24 98.4 22.9 98.4 21.5C98.4 20.8 98.4 20 98.4 19C98.3 19.4 97.5 20.4 96.2 22C95 23.4 94.3 24.4 94.3 24.7H93.5C93.6 23.7 93.6 22.5 93.6 21.1C93.6 19.7 93.6 18.4 93.5 17.1H94.6C94.6 18.2 94.5 19.3 94.5 20.7C94.5 21.4 94.5 22.1 94.4 22.9H94.5C94.7 22.5 95.4 21.5 96.7 19.9C98 18.5 98.6 17.5 98.6 17.1H99.4C99.3 18.4 99.3 19.7 99.3 21.1C99.4 22.5 99.4 23.7 99.4 24.7Z" fill="black"/>
<path d="M107.302 24.7H106.202C106.202 23.3 106.302 22.1 106.302 21.1H102.702C102.702 22 102.702 23.2 102.802 24.7H101.602C101.702 23.3 101.702 21.9 101.702 20.7C101.702 19.4 101.702 18.2 101.602 17.1H102.702C102.702 18.2 102.602 19.3 102.602 20.4H106.102C106.102 19.6 106.102 18.5 106.002 17.1H107.102C107.002 18.2 107.002 19.4 107.002 20.7C107.202 22.2 107.202 23.5 107.302 24.7Z" fill="black"/>
<path d="M114.598 23.8L114.498 24.7C113.998 24.8 113.498 24.9 112.898 24.9C111.598 24.9 110.498 24.5 109.898 23.8C109.298 23.1 108.898 22.2 108.898 21.1C108.898 20 109.298 19 109.998 18.2C110.698 17.4 111.798 17 112.998 17C113.398 17 113.698 17.1 114.098 17.2L113.898 18.1C113.498 18 113.098 17.9 112.698 17.9C111.798 17.9 110.998 18.2 110.498 18.8C109.998 19.4 109.998 20.1 109.998 20.9C109.998 21.8 110.298 22.5 110.798 23.1C111.298 23.7 112.098 24 113.098 24C113.498 24.1 113.998 24 114.598 23.8Z" fill="black"/>
<path d="M120.899 17.1V17.9C120.099 17.9 119.299 17.8 118.499 17.8C118.499 18.6 118.499 19.5 118.499 20.7C118.499 22 118.499 23.3 118.599 24.7H117.499C117.499 23.4 117.599 22 117.599 20.7C117.599 19.6 117.599 18.6 117.599 17.8C116.999 17.8 116.199 17.8 115.199 17.9V17.1H120.899V17.1Z" fill="black"/>
<path d="M128.099 24.7H126.999C126.999 24 127.099 22.9 127.099 21.5C127.099 20.8 127.099 20 127.099 19H126.999C126.899 19.4 126.099 20.4 124.799 22C123.599 23.4 122.999 24.4 122.999 24.7H122.199C122.299 23.7 122.299 22.5 122.299 21.1C122.299 19.7 122.299 18.4 122.199 17.1H123.299C123.199 18.2 123.199 19.3 123.199 20.7C123.199 21.4 123.199 22.1 123.099 22.9H123.199C123.399 22.5 124.099 21.5 125.399 19.9C126.599 18.5 127.199 17.5 127.199 17.1H127.999C127.999 18.4 127.999 19.7 127.999 21.1C127.999 22.5 127.999 23.7 128.099 24.7Z" fill="black"/>
<path d="M135.2 17.1V17.9C134.4 17.9 133.6 17.8 132.8 17.8C132.8 18.6 132.8 19.5 132.8 20.7C132.8 22 132.8 23.3 132.9 24.7H131.8C131.8 23.4 131.9 22 131.9 20.7C131.9 19.6 131.9 18.6 131.9 17.8C131.3 17.8 130.5 17.8 129.5 17.9V17.1H135.2V17.1Z" fill="black"/>
<path d="M141.5 17.1C141.5 17.3 141.2 18.1 140.7 19.4C140.2 20.7 139.6 21.8 139.1 22.7C138.6 23.6 138.2 24.1 137.7 24.4C137.2 24.7 136.6 24.9 135.9 24.9V24.1C136.6 24.1 137.1 24 137.4 23.8C137.7 23.6 138 23.2 138.3 22.6C138.3 22.3 137.8 21.3 136.9 19.7C136 18.1 135.5 17.2 135.5 17.1H136.7C136.7 17.2 137.1 17.9 137.8 19.3C138.5 20.7 138.9 21.4 138.9 21.6H139C140.1 19.2 140.6 17.7 140.6 17.2H141.5V17.1Z" fill="black"/>
<path d="M147.399 17.1V17.9C146.599 17.9 145.799 17.8 144.999 17.8C144.999 18.6 144.999 19.5 144.999 20.7C144.999 22 144.999 23.3 145.099 24.7H143.999C143.999 23.4 144.099 22 144.099 20.7C144.099 19.6 144.099 18.6 144.099 17.8C143.499 17.8 142.699 17.8 141.699 17.9V17.1H147.399V17.1Z" fill="black"/>
<path d="M157.199 24.7H156.099C156.199 24 156.199 22.9 156.199 21.4C156.199 20.7 156.199 19.9 156.199 18.9H156.099C155.999 19.3 155.199 20.3 153.899 21.9C152.699 23.4 151.999 24.3 151.999 24.7H151.199C151.299 23.7 151.299 22.5 151.299 21.1C151.299 19.7 151.299 18.4 151.199 17.1H152.299C152.199 18.2 152.199 19.3 152.199 20.7C152.199 21.4 152.199 22.1 152.099 22.9H152.199C152.399 22.5 153.099 21.5 154.399 19.9C155.599 18.5 156.199 17.5 156.199 17.1H156.999C156.899 18.4 156.899 19.7 156.899 21.1C157.099 22.5 157.099 23.7 157.199 24.7Z" fill="black"/>
<path d="M164.099 22.5C164.099 23.2 163.799 23.8 163.299 24.3C162.799 24.8 161.999 24.9 161.099 24.9C160.099 24.9 159.299 24.8 158.699 24.5L158.799 23.6C159.599 23.9 160.299 24.1 161.099 24.1C162.399 24.1 163.099 23.6 163.099 22.6C163.099 22.1 162.899 21.7 162.399 21.5C161.899 21.3 161.399 21.2 160.599 21.2C160.299 21.2 159.999 21.2 159.699 21.2L159.799 20.3C159.999 20.3 160.299 20.3 160.699 20.3C161.999 20.3 162.599 19.9 162.599 19C162.599 18.2 161.999 17.8 160.799 17.8C159.999 17.8 159.399 17.9 158.799 18.2L158.899 17.3C159.699 17.1 160.399 17 161.499 17C162.299 17 162.799 17.2 163.199 17.5C163.599 17.8 163.799 18.2 163.799 18.7C163.799 19.5 163.399 20.1 162.499 20.5V20.6C163.599 20.8 164.099 21.4 164.099 22.5Z" fill="black"/>
<path d="M170.898 17.1C170.898 17.3 170.598 18.1 170.098 19.4C169.598 20.7 168.998 21.9 168.498 22.7C167.998 23.5 167.598 24.1 167.098 24.4C166.598 24.7 165.998 24.9 165.298 24.9V24.1C165.998 24.1 166.498 24 166.798 23.8C167.098 23.6 167.398 23.2 167.698 22.6C167.698 22.3 167.198 21.3 166.298 19.7C165.398 18.1 164.898 17.2 164.898 17.1H165.998C165.998 17.2 166.398 17.9 167.098 19.3C167.798 20.7 168.198 21.4 168.198 21.6H168.298C169.398 19.2 169.898 17.7 169.898 17.2H170.898V17.1Z" fill="black"/>
<path d="M177 24.7H175.9C176 23.7 176 22.6 176 21.3C175.5 21.4 174.8 21.5 174 21.5C173.2 21.5 172.5 21.3 172.1 21C171.7 20.7 171.5 19.9 171.5 18.8C171.5 18.3 171.5 17.8 171.5 17.2H172.6C172.5 17.7 172.5 18.1 172.5 18.5C172.5 19.5 172.6 20.2 172.9 20.4C173.2 20.6 173.7 20.8 174.5 20.8C175.1 20.8 175.6 20.7 176 20.6C176 19.3 176 18.1 175.9 17.1H177C176.9 18.2 176.9 19.4 176.9 20.7C176.9 22.1 177 23.5 177 24.7Z" fill="black"/>
<path d="M184.001 23.8V24.7H179.301C179.401 23.5 179.401 22.2 179.401 20.7C179.401 19.3 179.401 18.1 179.301 17.1H183.701V18C182.601 18 181.501 17.9 180.301 17.9C180.301 18.5 180.301 19.3 180.301 20.4C181.301 20.4 182.301 20.4 183.101 20.3V21.2C182.201 21.2 181.301 21.1 180.301 21.1C180.301 22.1 180.301 23 180.401 23.9C181.601 23.9 182.801 23.9 184.001 23.8Z" fill="black"/>
<path d="M191.1 24.7H190C190 23.4 190 22.2 190 21.1H186.5C186.5 22 186.5 23.2 186.6 24.7H185.5C185.6 23.3 185.6 21.9 185.6 20.7C185.6 19.4 185.6 18.2 185.5 17.1H186.6C186.6 18.2 186.5 19.3 186.5 20.4H190C190 19.6 190 18.5 189.9 17.1H191C191 18.2 191 19.4 191 20.7C191 22.2 191 23.5 191.1 24.7Z" fill="black"/>
<path d="M199.199 24.7H198.099C198.199 24 198.199 22.9 198.199 21.4C198.199 20.7 198.199 19.9 198.199 18.9H198.099C197.999 19.3 197.199 20.3 195.899 21.9C194.699 23.4 193.999 24.3 193.999 24.7H193.199C193.299 23.7 193.299 22.5 193.299 21.1C193.299 19.7 193.299 18.4 193.199 17.1H194.299C194.199 18.2 194.199 19.3 194.199 20.7C194.199 21.4 194.199 22.1 194.099 22.9H194.199C194.399 22.5 195.099 21.5 196.399 19.9C197.599 18.5 198.199 17.5 198.199 17.1H198.999C198.899 18.4 198.899 19.7 198.899 21.1C199.099 22.5 199.199 23.7 199.199 24.7Z" fill="black"/>
<path d="M206.3 24.7H205.2C205.2 23.8 205.3 22.7 205.3 21.4C205 21.4 204.7 21.4 204.4 21.4C203.7 21.4 203.2 21.6 202.8 22C202.4 22.4 202.1 23.1 201.8 24.3C201.7 24.5 201.7 24.6 201.7 24.7H200.5C200.5 24.6 200.6 24.4 200.7 24.1C201.1 23 201.4 22.2 201.6 21.9C201.8 21.6 202.2 21.3 202.7 21.2V21.1C201.5 20.9 201 20.2 201 19.1C201 17.7 202 17 203.9 17C204.2 17 204.5 17 204.9 17C205.3 17 205.5 17 205.5 17H206.3C206.2 18 206.2 19.2 206.2 20.6C206.3 22.2 206.3 23.5 206.3 24.7ZM205.3 20.7C205.3 19.8 205.3 18.9 205.2 17.9C204.6 17.8 204.1 17.8 203.8 17.8C203.2 17.8 202.7 17.9 202.4 18.1C202.1 18.3 202 18.6 202 19C202 20.1 202.8 20.6 204.5 20.6C204.9 20.7 205.1 20.7 205.3 20.7Z" fill="black"/>
<path d="M217.602 23.9C217.602 24.1 217.502 24.6 217.402 25.4C217.302 26.2 217.202 26.7 217.202 27.1H216.502C216.502 26.6 216.502 25.8 216.502 24.6C215.902 24.6 215.002 24.5 213.702 24.5C212.702 24.5 211.802 24.5 211.102 24.6C210.902 25.7 210.802 26.6 210.802 27.1H210.102C210.102 26.7 210.102 26.1 210.102 25.4C210.102 24.7 210.102 24.1 210.102 23.9H210.702C211.402 21.9 212.302 19.6 213.402 17.1H216.402C216.402 18.3 216.302 19.5 216.302 20.7C216.302 21.8 216.302 22.9 216.402 24H217.602V23.9ZM215.502 23.9C215.502 23.1 215.402 22.1 215.402 20.8C215.402 19.6 215.402 18.6 215.402 17.8H214.002C212.802 20.6 212.002 22.6 211.702 23.9H215.502Z" fill="black"/>
<path d="M223.7 23.8V24.7H219C219.1 23.5 219.1 22.2 219.1 20.7C219.1 19.3 219.1 18.1 219 17.1H223.4V18C222.3 18 221.2 17.9 220 17.9C220 18.5 220 19.3 220 20.4C221 20.4 222 20.4 222.8 20.3V21.2C221.9 21.2 221 21.1 220 21.1C220 22.1 220 23 220.1 23.9C221.3 23.9 222.5 23.9 223.7 23.8Z" fill="black"/>
<path d="M230.098 17.1V17.9C229.298 17.9 228.498 17.8 227.698 17.8C227.698 18.6 227.698 19.5 227.698 20.7C227.698 22 227.698 23.3 227.798 24.7H226.698C226.698 23.4 226.798 22 226.798 20.7C226.798 19.6 226.798 18.6 226.798 17.8C226.198 17.8 225.398 17.8 224.398 17.9V17.1H230.098V17.1Z" fill="black"/>
<path d="M236.501 23.8L236.401 24.7C235.901 24.8 235.401 24.9 234.801 24.9C233.501 24.9 232.401 24.5 231.801 23.8C231.201 23.1 230.801 22.2 230.801 21.1C230.801 20 231.201 19 231.901 18.2C232.601 17.4 233.701 17 234.901 17C235.301 17 235.601 17.1 236.001 17.2L235.801 18.1C235.401 18 235.001 17.9 234.601 17.9C233.701 17.9 232.901 18.2 232.401 18.8C231.901 19.4 231.701 20.1 231.701 21C231.701 21.9 232.001 22.6 232.501 23.2C233.001 23.8 233.801 24.1 234.801 24.1C235.401 24.1 235.901 24 236.501 23.8Z" fill="black"/>
<path d="M242.802 17.1V17.9C242.002 17.9 241.202 17.8 240.402 17.8C240.402 18.6 240.402 19.5 240.402 20.7C240.402 22 240.402 23.3 240.502 24.7H239.402C239.402 23.4 239.502 22 239.502 20.7C239.502 19.6 239.502 18.6 239.502 17.8C238.902 17.8 238.102 17.8 237.102 17.9V17.1H242.802V17.1Z" fill="black"/>
<path d="M249.4 22.4C249.4 23.2 249.1 23.7 248.4 24.2C247.8 24.6 246.9 24.8 245.8 24.8C245.5 24.8 244.9 24.8 244 24.8C244.1 23.6 244.1 22.3 244.1 20.8C244.1 19.4 244.1 18.2 244 17.2H244.7C244.8 17.2 245.1 17.2 245.5 17.2C245.9 17.2 246.2 17.2 246.4 17.2C248 17.2 248.8 17.8 248.8 18.9C248.8 19.8 248.4 20.4 247.6 20.6V20.7C248.8 20.8 249.4 21.4 249.4 22.4ZM247.9 19C247.9 18.2 247.4 17.8 246.3 17.8C245.8 17.8 245.3 17.8 245 17.9C245 18.2 245 19 245 20.3C245.2 20.3 245.4 20.3 245.6 20.3C246.4 20.3 246.9 20.2 247.3 20C247.7 19.9 247.9 19.5 247.9 19ZM248.4 22.5C248.4 21.5 247.5 21.1 245.8 21.1C245.5 21.1 245.2 21.1 245 21.1C245 22.1 245 23.1 245.1 23.9C245.2 23.9 245.5 24 245.9 24C246.8 24 247.5 23.9 247.9 23.6C248.2 23.4 248.4 23 248.4 22.5Z" fill="black"/>
<path d="M257.3 24.7H256C256 24.4 255.8 23.6 255.3 22.2H251.9C251.4 23.6 251.2 24.4 251.2 24.7H250C250 24.6 250.5 23.3 251.5 21C252.5 18.7 253 17.4 253 17.1H254.4C254.4 17.3 254.9 18.6 255.8 20.9C256.7 23.2 257.3 24.5 257.3 24.7ZM255 21.5C254.1 19.2 253.6 18 253.6 17.8H253.5C253.5 17.9 253 19.1 252.1 21.5H255Z" fill="black"/>
<path d="M259.602 24.1C259.602 24.6 259.502 25.1 259.202 25.6C258.902 26.1 258.502 26.5 258.002 27L257.602 26.6C258.202 25.9 258.502 25.3 258.502 24.8C258.202 24.6 258.002 24.3 258.002 24C258.002 23.8 258.102 23.6 258.202 23.4C258.302 23.2 258.502 23.1 258.802 23.1C259.002 23.1 259.202 23.2 259.402 23.4C259.602 23.6 259.602 23.8 259.602 24.1Z" fill="black"/>
<path d="M98.7 38.2L98.6 39.1C98.1 39.2 97.6 39.3 97 39.3C95.7 39.3 94.6 38.9 94 38.2C93.4 37.5 93 36.6 93 35.5C93 34.4 93.4 33.4 94.1 32.6C94.8 31.8 95.9 31.4 97.1 31.4C97.5 31.4 97.8 31.5 98.2 31.6L98 32.5C97.6 32.4 97.2 32.3 96.8 32.3C95.9 32.3 95.1 32.6 94.6 33.2C94.1 33.8 94 34.5 94 35.3C94 36.2 94.3 36.9 94.8 37.5C95.3 38.1 96.1 38.4 97.1 38.4C97.6 38.5 98.1 38.4 98.7 38.2Z" fill="black"/>
<path d="M104.902 38.2V39.1H100.102C100.202 37.9 100.202 36.6 100.202 35.1C100.202 33.7 100.202 32.5 100.102 31.5H104.502V32.4C103.402 32.4 102.302 32.3 101.102 32.3C101.102 32.9 101.102 33.7 101.102 34.8C102.102 34.8 103.102 34.8 103.902 34.7V35.6C103.002 35.6 102.102 35.5 101.102 35.5C101.102 36.5 101.102 37.4 101.202 38.3C102.502 38.3 103.702 38.3 104.902 38.2Z" fill="black"/>
<path d="M114.502 39.1H113.402C113.402 38.2 113.302 37 113.202 35.3C113.102 33.6 113.002 32.7 113.002 32.3C112.602 33.6 112.102 34.9 111.502 36.4C110.902 37.9 110.602 38.8 110.602 39H109.802C109.802 38.7 109.502 37.8 109.002 36.3C108.502 34.8 108.102 33.8 107.902 33.3C107.702 32.8 107.602 32.4 107.602 32.2H107.502C107.502 32.7 107.402 33.8 107.302 35.4C107.202 37 107.102 38.2 107.102 38.9H106.102C106.102 38.9 106.202 37.8 106.502 35.7C106.802 33.6 106.902 32.1 106.902 31.3H108.402C108.402 31.7 108.702 32.8 109.302 34.5C109.902 36.2 110.202 37.3 110.202 37.6H110.302C110.302 37.2 110.702 36.2 111.402 34.5C112.102 32.8 112.502 31.7 112.502 31.3H114.002C114.002 32.1 114.102 33.6 114.302 35.7C114.502 37.8 114.502 39.1 114.502 39.1Z" fill="black"/>
<path d="M121.902 36.7C121.902 37.5 121.602 38.1 121.002 38.5C120.402 38.9 119.502 39.2 118.402 39.2C118.102 39.2 117.502 39.2 116.602 39.2C116.702 38 116.702 36.7 116.702 35.2C116.702 33.8 116.702 32.6 116.602 31.6H117.702C117.702 31.9 117.602 32.9 117.602 34.6C118.002 34.6 118.302 34.6 118.602 34.6C120.802 34.4 121.902 35.2 121.902 36.7ZM120.902 36.8C120.902 35.8 120.102 35.2 118.402 35.2C118.102 35.2 117.802 35.2 117.602 35.2C117.602 36.2 117.602 37.3 117.702 38.2C117.902 38.2 118.202 38.3 118.502 38.3C119.402 38.3 120.102 38.2 120.402 37.9C120.702 37.6 120.902 37.3 120.902 36.8Z" fill="black"/>
<path d="M129.301 39.1H128.201C128.301 38.4 128.301 37.3 128.301 35.8C128.301 35.1 128.301 34.3 128.301 33.3H128.201C128.101 33.7 127.301 34.7 126.001 36.3C124.801 37.8 124.101 38.7 124.101 39.1H123.301C123.401 38.1 123.401 36.9 123.401 35.5C123.401 34.1 123.401 32.8 123.301 31.5H124.401C124.301 32.6 124.301 33.7 124.301 35.1C124.301 35.8 124.301 36.5 124.201 37.3H124.301C124.501 36.9 125.201 35.9 126.501 34.3C127.701 32.9 128.301 31.9 128.301 31.5H129.101C129.001 32.8 129.001 34.1 129.001 35.5C129.301 36.9 129.301 38.1 129.301 39.1Z" fill="black"/>
<path d="M140.102 39.1H139.002C139.102 38.4 139.102 37.3 139.102 35.8C139.102 35.1 139.102 34.3 139.102 33.3H139.002C138.902 33.7 138.102 34.7 136.802 36.3C135.602 37.8 134.902 38.7 134.902 39.1H134.102C134.202 38.1 134.202 36.9 134.202 35.5C134.202 34.1 134.202 32.8 134.102 31.5H135.202C135.102 32.6 135.102 33.7 135.102 35.1C135.102 35.8 135.102 36.5 135.002 37.3H135.102C135.302 36.9 136.002 35.9 137.302 34.3C138.502 32.9 139.102 31.9 139.102 31.5H139.902C139.802 32.8 139.802 34.1 139.802 35.5C140.002 36.9 140.002 38.1 140.102 39.1Z" fill="black"/>
<path d="M150.201 36.8C150.201 37.6 149.901 38.1 149.201 38.6C148.601 39 147.701 39.2 146.601 39.2C146.301 39.2 145.701 39.2 144.801 39.2C144.901 38 144.901 36.7 144.901 35.2C144.901 33.8 144.901 32.6 144.801 31.6H145.501C145.601 31.6 145.901 31.6 146.301 31.6C146.701 31.6 147.001 31.6 147.201 31.6C148.801 31.6 149.601 32.2 149.601 33.3C149.601 34.2 149.201 34.8 148.401 35V35C149.701 35.2 150.201 35.8 150.201 36.8ZM148.801 33.4C148.801 32.6 148.301 32.2 147.201 32.2C146.701 32.2 146.201 32.2 145.901 32.3C145.901 32.6 145.901 33.4 145.901 34.7C146.101 34.7 146.301 34.7 146.501 34.7C147.301 34.7 147.801 34.6 148.201 34.4C148.601 34.3 148.801 33.9 148.801 33.4ZM149.201 36.9C149.201 35.9 148.301 35.5 146.601 35.5C146.301 35.5 146.001 35.5 145.801 35.5C145.801 36.5 145.801 37.5 145.901 38.3C146.001 38.3 146.301 38.4 146.701 38.4C147.601 38.4 148.301 38.3 148.701 38C149.101 37.8 149.201 37.4 149.201 36.9Z" fill="black"/>
<path d="M158.501 35.2C158.501 36.5 158.101 37.5 157.401 38.2C156.701 38.9 155.801 39.3 154.801 39.3C153.901 39.3 153.101 39 152.401 38.3C151.701 37.6 151.301 36.7 151.301 35.5C151.301 34.2 151.701 33.2 152.401 32.5C153.101 31.8 154.001 31.4 155.001 31.4C155.901 31.4 156.701 31.7 157.401 32.4C158.101 33.1 158.501 34 158.501 35.2ZM157.501 35.3C157.501 34.3 157.201 33.5 156.701 33C156.201 32.5 155.601 32.2 154.901 32.2C154.301 32.2 153.701 32.5 153.201 33.1C152.701 33.7 152.401 34.5 152.401 35.4C152.401 36.4 152.701 37.2 153.201 37.7C153.701 38.2 154.301 38.5 155.001 38.5C155.601 38.5 156.201 38.2 156.701 37.6C157.201 37 157.501 36.3 157.501 35.3Z" fill="black"/>
<path d="M165.399 38.2L165.299 39.1C164.799 39.2 164.299 39.3 163.699 39.3C162.399 39.3 161.299 38.9 160.699 38.2C160.099 37.5 159.699 36.6 159.699 35.5C159.699 34.4 160.099 33.4 160.799 32.6C161.499 31.8 162.599 31.4 163.799 31.4C164.199 31.4 164.499 31.5 164.899 31.6L164.699 32.5C164.299 32.4 163.899 32.3 163.499 32.3C162.599 32.3 161.799 32.6 161.299 33.2C160.799 33.8 160.599 34.5 160.599 35.4C160.599 36.3 160.899 37 161.399 37.6C161.899 38.2 162.699 38.5 163.699 38.5C164.299 38.5 164.799 38.4 165.399 38.2Z" fill="black"/>
<path d="M172.101 39.1H171.001C171.001 38 171.101 36.7 171.101 35.3C171.101 34.1 171.101 33.1 171.201 32.3H167.701C167.801 33.1 167.801 34.1 167.801 35.2C167.801 36.7 167.801 38 167.901 39.1H166.801C166.901 37.6 166.901 36.2 166.901 35C166.901 33.9 166.901 32.7 166.801 31.4H172.101C172.101 32.6 172.001 33.8 172.001 35C172.001 36.3 172.101 37.6 172.101 39.1Z" fill="black"/>
<path d="M180.199 39.1H179.099C179.199 38.4 179.199 37.3 179.199 35.8C179.199 35.1 179.199 34.3 179.199 33.3H179.099C178.999 33.7 178.199 34.7 176.899 36.3C175.699 37.8 174.999 38.7 174.999 39.1H174.199C174.299 38.1 174.299 36.9 174.299 35.5C174.299 34.1 174.299 32.8 174.199 31.5H175.299C175.199 32.6 175.199 33.7 175.199 35.1C175.199 35.8 175.199 36.5 175.099 37.3H175.199C175.399 36.9 176.099 35.9 177.399 34.3C178.599 32.9 179.199 31.9 179.199 31.5H179.999C179.899 32.8 179.899 34.1 179.899 35.5C180.099 36.9 180.199 38.1 180.199 39.1Z" fill="black"/>
<path d="M187.302 31.5V32.3C186.502 32.3 185.702 32.2 184.902 32.2C184.902 33 184.902 33.9 184.902 35.1C184.902 36.4 184.902 37.7 185.002 39.1H183.902C183.902 37.8 184.002 36.4 184.002 35.1C184.002 34 184.002 33 184.002 32.2C183.402 32.2 182.602 32.2 181.602 32.3V31.5H187.302Z" fill="black"/>
<path d="M194.802 39.1H193.602C193.602 38.8 193.402 38 192.902 36.6H189.502C189.002 38 188.802 38.8 188.802 39.1H187.602C187.602 39 188.102 37.7 189.102 35.4C190.102 33.1 190.602 31.8 190.602 31.5H192.002C192.002 31.7 192.502 33 193.402 35.3C194.302 37.6 194.802 38.9 194.802 39.1ZM192.502 35.9C191.602 33.6 191.102 32.4 191.102 32.2H191.002C191.002 32.3 190.502 33.5 189.602 35.9H192.502Z" fill="black"/>
<path d="M201.6 39.1H200.5C200.5 37.7 200.6 36.5 200.6 35.5H197C197 36.4 197 37.6 197.1 39.1H196C196.1 37.7 196.1 36.3 196.1 35.1C196.1 33.8 196.1 32.6 196 31.5H197.1C197.1 32.6 197 33.7 197 34.8H200.5C200.5 34 200.5 32.9 200.4 31.5H201.5C201.4 32.6 201.4 33.8 201.4 35.1C201.5 36.6 201.5 37.9 201.6 39.1Z" fill="black"/>
<path d="M209.699 39.1H208.599C208.699 38.4 208.699 37.3 208.699 35.8C208.699 35.1 208.699 34.3 208.699 33.3H208.599C208.499 33.7 207.699 34.7 206.399 36.3C205.199 37.8 204.499 38.7 204.499 39.1H203.699C203.799 38.1 203.799 36.9 203.799 35.5C203.799 34.1 203.799 32.8 203.699 31.5H204.799C204.699 32.6 204.699 33.7 204.699 35.1C204.699 35.8 204.699 36.5 204.599 37.3H204.699C204.899 36.9 205.599 35.9 206.899 34.3C208.099 32.9 208.699 31.9 208.699 31.5H209.499C209.399 32.8 209.399 34.1 209.399 35.5C209.599 36.9 209.599 38.1 209.699 39.1Z" fill="black"/>
<path d="M216.8 39.1H215.7C215.7 38.2 215.8 37.1 215.8 35.8C215.5 35.8 215.2 35.8 214.9 35.8C214.2 35.8 213.7 36 213.3 36.4C212.9 36.8 212.6 37.5 212.3 38.7C212.2 38.9 212.2 39 212.2 39.1H211C211 39 211.1 38.8 211.2 38.5C211.6 37.4 211.9 36.6 212.1 36.3C212.3 36 212.7 35.7 213.2 35.6V35.5C212 35.3 211.5 34.6 211.5 33.5C211.5 32.1 212.5 31.4 214.4 31.4C214.7 31.4 215 31.4 215.4 31.4C215.8 31.4 216 31.4 216 31.4H216.8C216.7 32.4 216.7 33.6 216.7 35C216.7 36.6 216.8 37.9 216.8 39.1ZM215.8 35.1C215.8 34.2 215.8 33.3 215.7 32.3C215.1 32.2 214.6 32.2 214.3 32.2C213.7 32.2 213.2 32.3 212.9 32.5C212.6 32.7 212.5 33 212.5 33.4C212.5 34.5 213.3 35 215 35C215.4 35.1 215.6 35.1 215.8 35.1Z" fill="black"/>
<path d="M98.7 47.8C98.7 48.7 98.4 49.4 97.7 49.8C97 50.2 96.1 50.5 95 50.5C94.9 50.5 94.7 50.5 94.6 50.5C94.6 51.4 94.6 52.4 94.7 53.6H93.5C93.6 52.5 93.6 51.2 93.6 49.6C93.6 48.3 93.6 47 93.5 46H94.3C94.4 46 94.6 46 95.1 46C95.6 46 95.9 46 96.2 46C97 45.9 97.6 46 98 46.4C98.4 46.8 98.7 47.2 98.7 47.8ZM97.7 48.1C97.7 47.1 97 46.6 95.6 46.6C95.3 46.6 94.9 46.6 94.5 46.7C94.5 47.3 94.5 48.3 94.5 49.7C94.6 49.7 94.8 49.7 95 49.7C96.8 49.7 97.7 49.2 97.7 48.1Z" fill="black"/>
<path d="M106.802 49.6C106.802 50.9 106.402 51.9 105.702 52.6C105.002 53.3 104.102 53.7 103.102 53.7C102.202 53.7 101.402 53.4 100.702 52.7C100.002 52 99.6016 51.1 99.6016 49.9C99.6016 48.6 100.002 47.6 100.702 46.9C101.402 46.2 102.302 45.8 103.302 45.8C104.202 45.8 105.002 46.1 105.702 46.8C106.402 47.5 106.802 48.4 106.802 49.6ZM105.802 49.7C105.802 48.7 105.502 47.9 105.002 47.4C104.502 46.9 103.902 46.6 103.202 46.6C102.602 46.6 102.002 46.9 101.502 47.5C101.002 48.1 100.702 48.9 100.702 49.8C100.702 50.8 101.002 51.6 101.502 52.1C102.002 52.6 102.602 52.9 103.302 52.9C103.902 52.9 104.502 52.6 105.002 52C105.502 51.4 105.802 50.7 105.802 49.7Z" fill="black"/>
<path d="M113.598 52.6L113.498 53.5C112.998 53.6 112.498 53.7 111.898 53.7C110.598 53.7 109.498 53.3 108.898 52.6C108.298 51.9 107.898 51 107.898 49.9C107.898 48.8 108.298 47.8 108.998 47C109.698 46.2 110.798 45.8 111.998 45.8C112.398 45.8 112.698 45.9 113.098 46L112.898 46.9C112.498 46.8 112.098 46.7 111.698 46.7C110.798 46.7 109.998 47 109.498 47.6C108.998 48.2 108.998 48.9 108.998 49.7C108.998 50.6 109.298 51.3 109.798 51.9C110.298 52.5 111.098 52.8 112.098 52.8C112.598 52.9 112.998 52.8 113.598 52.6Z" fill="black"/>
<path d="M120.2 52.6L120.1 53.5C119.6 53.6 119.1 53.7 118.5 53.7C117.2 53.7 116.1 53.3 115.5 52.6C114.9 51.9 114.5 51 114.5 49.9C114.5 48.8 114.9 47.8 115.6 47C116.3 46.2 117.4 45.8 118.6 45.8C119 45.8 119.3 45.9 119.7 46L119.5 46.9C119.1 46.8 118.7 46.7 118.3 46.7C117.4 46.7 116.6 47 116.1 47.6C115.6 48.2 115.4 48.9 115.4 49.8C115.4 50.7 115.7 51.4 116.2 52C116.7 52.6 117.5 52.9 118.5 52.9C119.1 52.9 119.6 52.8 120.2 52.6Z" fill="black"/>
<path d="M127.602 53.5H126.502C126.602 52.8 126.602 51.7 126.602 50.2C126.602 49.5 126.602 48.7 126.602 47.7H126.502C126.402 48.1 125.602 49.1 124.302 50.7C123.102 52.2 122.402 53.1 122.402 53.5H121.602C121.702 52.5 121.702 51.3 121.702 49.9C121.702 48.5 121.702 47.2 121.602 45.9H122.702C122.602 47 122.602 48.1 122.602 49.5C122.602 50.2 122.602 50.9 122.502 51.7H122.602C122.802 51.3 123.502 50.3 124.802 48.7C126.002 47.3 126.602 46.3 126.602 45.9H127.402C127.302 47.2 127.302 48.5 127.302 49.9C127.502 51.3 127.502 52.5 127.602 53.5Z" fill="black"/>
<path d="M135.699 53.5H134.599C134.699 52.8 134.699 51.7 134.699 50.2C134.699 49.5 134.699 48.7 134.699 47.7H134.599C134.499 48.1 133.699 49.1 132.399 50.7C131.199 52.2 130.499 53.1 130.499 53.5H129.699C129.799 52.5 129.799 51.3 129.799 49.9C129.799 48.5 129.799 47.2 129.699 45.9H130.799C130.699 47 130.699 48.1 130.699 49.5C130.699 50.2 130.699 50.9 130.599 51.7H130.699C130.899 51.3 131.599 50.3 132.899 48.7C134.099 47.3 134.699 46.3 134.699 45.9H135.499C135.399 47.2 135.399 48.5 135.399 49.9C135.599 51.3 135.599 52.5 135.699 53.5ZM134.599 43.8C134.599 44.2 134.499 44.6 134.199 45C133.899 45.4 133.499 45.5 132.799 45.5C132.099 45.5 131.599 45.3 131.399 45C131.199 44.7 130.999 44.2 130.999 43.7L131.799 43.6C131.799 44.4 132.099 44.8 132.799 44.8C133.199 44.8 133.499 44.7 133.599 44.5C133.699 44.3 133.799 44 133.799 43.6L134.599 43.8Z" fill="black"/>
<path d="M143.098 52.6L142.998 53.5C142.498 53.6 141.998 53.7 141.398 53.7C140.098 53.7 138.998 53.3 138.398 52.6C137.798 51.9 137.398 51 137.398 49.9C137.398 48.8 137.798 47.8 138.498 47C139.198 46.2 140.298 45.8 141.498 45.8C141.898 45.8 142.198 45.9 142.598 46L142.398 46.9C141.998 46.8 141.598 46.7 141.198 46.7C140.298 46.7 139.498 47 138.998 47.6C138.498 48.2 138.298 48.9 138.298 49.8C138.298 50.7 138.598 51.4 139.098 52C139.598 52.6 140.398 52.9 141.398 52.9C141.998 52.9 142.498 52.8 143.098 52.6Z" fill="black"/>
<path d="M150.202 53.5H149.002C149.002 53.4 148.902 53.3 148.802 53C148.502 51.8 148.102 50.9 147.802 50.6C147.502 50.3 146.802 50 146.102 50C145.902 50 145.702 50 145.602 50C145.602 51.3 145.602 52.4 145.702 53.5H144.602C144.702 52.3 144.702 51 144.702 49.5C144.702 48.1 144.702 46.9 144.602 45.9H145.702C145.702 47.1 145.602 48.2 145.602 49.3C145.802 49.3 146.002 49.3 146.102 49.3C146.802 49.3 147.302 49.1 147.802 48.6C148.302 48.1 148.602 47.4 148.802 46.3C148.802 46.1 148.902 46 149.002 45.8H150.002C150.002 45.9 149.902 46.1 149.802 46.4C149.502 47.3 149.302 48 149.002 48.4C148.702 48.8 148.302 49.2 147.902 49.4V49.5C148.402 49.7 148.802 49.9 149.002 50.3C149.202 50.7 149.602 51.5 150.002 52.7C150.002 53 150.002 53.2 150.202 53.5Z" fill="black"/>
<path d="M158.302 49.6C158.302 50.9 157.902 51.9 157.202 52.6C156.502 53.3 155.602 53.7 154.602 53.7C153.702 53.7 152.902 53.4 152.202 52.7C151.502 52 151.102 51.1 151.102 49.9C151.102 48.6 151.502 47.6 152.202 46.9C152.902 46.2 153.802 45.8 154.802 45.8C155.702 45.8 156.502 46.1 157.202 46.8C157.902 47.5 158.302 48.4 158.302 49.6ZM157.302 49.7C157.302 48.7 157.002 47.9 156.502 47.4C156.002 46.9 155.402 46.6 154.702 46.6C154.102 46.6 153.502 46.9 153.002 47.5C152.502 48.1 152.202 48.9 152.202 49.8C152.202 50.8 152.502 51.6 153.002 52.1C153.502 52.6 154.102 52.9 154.802 52.9C155.402 52.9 156.002 52.6 156.502 52C157.002 51.4 157.302 50.7 157.302 49.7Z" fill="black"/>
<path d="M165.9 53.5H164.8C164.9 52.8 164.9 51.7 164.9 50.2C164.9 49.5 164.9 48.7 164.9 47.7H164.8C164.7 48.1 163.9 49.1 162.6 50.7C161.4 52.2 160.7 53.1 160.7 53.5H160C160.1 52.5 160.1 51.3 160.1 49.9C160.1 48.5 160.1 47.2 160 45.9H161.1C161 47 161 48.1 161 49.5C161 50.2 161 50.9 160.9 51.7H161C161.2 51.3 161.9 50.3 163.2 48.7C164.4 47.3 165 46.3 165 45.9H165.8C165.7 47.2 165.7 48.5 165.7 49.9C165.9 51.3 165.9 52.5 165.9 53.5ZM164.9 43.8C164.9 44.2 164.8 44.6 164.5 45C164.2 45.4 163.8 45.5 163.1 45.5C162.4 45.5 161.9 45.3 161.7 45C161.5 44.7 161.3 44.3 161.3 43.8L162.1 43.7C162.1 44.5 162.4 44.9 163.1 44.9C163.5 44.9 163.8 44.8 163.9 44.6C164 44.4 164.1 44.1 164.1 43.7L164.9 43.8Z" fill="black"/>
<path d="M177.001 53.5H175.801C175.801 53.2 175.601 52.4 175.101 51H171.701C171.201 52.4 171.001 53.2 171.001 53.5H169.801C169.801 53.4 170.301 52.1 171.301 49.8C172.301 47.5 172.801 46.2 172.801 45.9H174.201C174.201 46.1 174.701 47.4 175.601 49.7C176.501 52 177.001 53.3 177.001 53.5ZM174.701 50.3C173.801 48 173.301 46.8 173.301 46.6H173.201C173.201 46.7 172.701 47.9 171.801 50.3H174.701Z" fill="black"/>
<path d="M183.799 53.5H182.599C182.599 53.4 182.499 53.3 182.399 53C182.099 51.8 181.699 50.9 181.399 50.6C181.099 50.3 180.499 50 179.699 50C179.499 50 179.299 50 179.199 50C179.199 51.3 179.199 52.4 179.299 53.5H178.199C178.299 52.3 178.299 51 178.299 49.5C178.299 48.1 178.299 46.9 178.199 45.9H179.299C179.299 47.1 179.199 48.2 179.199 49.3C179.399 49.3 179.599 49.3 179.699 49.3C180.399 49.3 180.899 49.1 181.399 48.6C181.899 48.1 182.199 47.4 182.399 46.3C182.399 46.1 182.499 46 182.599 45.8H183.599C183.599 45.9 183.499 46.1 183.399 46.4C183.099 47.3 182.899 48 182.599 48.4C182.299 48.8 181.899 49.2 181.499 49.4V49.5C181.999 49.7 182.399 49.9 182.599 50.3C182.799 50.7 183.199 51.5 183.599 52.7C183.599 53 183.699 53.2 183.799 53.5Z" fill="black"/>
<path d="M191.598 53.5H190.398C190.398 53.2 190.198 52.4 189.698 51H186.298C185.798 52.4 185.598 53.2 185.598 53.5H184.398C184.398 53.4 184.898 52.1 185.898 49.8C186.898 47.5 187.398 46.2 187.398 45.9H188.798C188.798 46.1 189.298 47.4 190.198 49.7C191.098 52 191.598 53.3 191.598 53.5ZM189.298 50.3C188.398 48 187.998 46.8 187.998 46.6H187.898C187.898 46.7 187.398 47.9 186.498 50.3H189.298V50.3Z" fill="black"/>
<path d="M199.199 52.7C199.199 52.9 199.099 53.4 198.999 54.2C198.899 55 198.799 55.5 198.799 55.9H198.099C198.099 55.4 198.099 54.6 198.099 53.4C197.499 53.4 196.599 53.3 195.299 53.3C194.299 53.3 193.399 53.3 192.699 53.4C192.499 54.5 192.399 55.4 192.399 55.9H191.699C191.699 55.5 191.699 54.9 191.699 54.2C191.699 53.5 191.699 52.9 191.699 52.7H192.299C192.999 50.7 193.899 48.4 194.999 45.9H197.999C197.999 47.1 197.899 48.3 197.899 49.5C197.899 50.6 197.899 51.7 197.999 52.8H199.199V52.7ZM197.099 52.7C197.099 51.9 196.999 50.9 196.999 49.6C196.999 48.4 196.999 47.4 196.999 46.6H195.599C194.399 49.4 193.599 51.4 193.299 52.7H197.099Z" fill="black"/>
<path d="M205.302 52.6V53.5H200.602C200.702 52.3 200.702 51 200.702 49.5C200.702 48.1 200.702 46.9 200.602 45.9H205.002V46.8C203.902 46.8 202.802 46.7 201.602 46.7C201.602 47.3 201.602 48.1 201.602 49.2C202.602 49.2 203.602 49.2 204.402 49.1V50C203.502 50 202.602 49.9 201.602 49.9C201.602 50.9 201.602 51.8 201.702 52.7C202.902 52.7 204.102 52.7 205.302 52.6Z" fill="black"/>
<path d="M215.002 53.5H213.902C213.902 52.6 213.802 51.4 213.702 49.7C213.602 48 213.502 47.1 213.502 46.7H213.402C213.002 48 212.502 49.3 211.902 50.8C211.302 52.3 211.002 53.2 211.002 53.4H210.202C210.202 53.1 209.902 52.2 209.402 50.7C208.902 49.2 208.502 48.2 208.302 47.7C208.102 47.2 208.002 46.8 208.002 46.6V46.6C208.002 47.1 207.902 48.2 207.802 49.8C207.702 51.4 207.602 52.6 207.602 53.3H206.602C206.602 53.3 206.702 52.2 207.002 50.1C207.302 48 207.402 46.5 207.402 45.7H208.902C208.902 46.1 209.202 47.2 209.802 48.9C210.402 50.6 210.702 51.7 210.702 52H210.802C210.802 51.6 211.202 50.6 211.902 48.9C212.602 47.2 213.002 46.1 213.002 45.7H214.502C214.502 46.5 214.602 48 214.802 50.1C215.002 52.2 215.002 53.5 215.002 53.5Z" fill="black"/>
<path d="M222.9 53.5H221.8C221.9 52.8 221.9 51.7 221.9 50.2C221.9 49.5 221.9 48.7 221.9 47.7H221.8C221.7 48.1 220.9 49.1 219.6 50.7C218.4 52.2 217.7 53.1 217.7 53.5H217C217.1 52.5 217.1 51.3 217.1 49.9C217.1 48.5 217.1 47.2 217 45.9H218.1C218 47 218 48.1 218 49.5C218 50.2 218 50.9 217.9 51.7H218C218.2 51.3 218.9 50.3 220.2 48.7C221.4 47.3 222 46.3 222 45.9H222.8C222.7 47.2 222.7 48.5 222.7 49.9C222.9 51.3 222.9 52.5 222.9 53.5Z" fill="black"/>
<path d="M231.102 53.5H230.002C230.102 52.8 230.102 51.7 230.102 50.2C230.102 49.5 230.102 48.7 230.102 47.7H230.002C229.902 48.1 229.102 49.1 227.802 50.7C226.602 52.2 225.902 53.1 225.902 53.5H225.102C225.202 52.5 225.202 51.3 225.202 49.9C225.202 48.5 225.202 47.2 225.102 45.9H226.202C226.102 47 226.102 48.1 226.102 49.5C226.102 50.2 226.102 50.9 226.002 51.7H226.102C226.302 51.3 227.002 50.3 228.302 48.7C229.502 47.3 230.102 46.3 230.102 45.9H230.902C230.802 47.2 230.802 48.5 230.802 49.9C231.002 51.3 231.002 52.5 231.102 53.5Z" fill="black"/>
<path d="M100.2 64C100.2 65.3 99.8 66.3 99.1 67C98.4 67.7 97.5 68.1 96.5 68.1C95.6 68.1 94.8 67.8 94.1 67.1C93.4 66.4 93 65.5 93 64.3C93 63 93.4 62 94.1 61.3C94.8 60.6 95.7 60.2 96.7 60.2C97.6 60.2 98.4 60.5 99.1 61.2C99.8 61.9 100.2 62.8 100.2 64ZM99.1 64.1C99.1 63.1 98.8 62.3 98.3 61.8C97.8 61.3 97.2 61 96.5 61C95.9 61 95.3 61.3 94.8 61.9C94.3 62.5 94 63.2 94 64.2C94 65.2 94.3 66 94.8 66.5C95.3 67 95.9 67.3 96.6 67.3C97.2 67.3 97.8 67 98.3 66.4C98.8 65.8 99.1 65.1 99.1 64.1Z" fill="black"/>
<path d="M107.201 65.6C107.201 66.4 106.901 66.9 106.201 67.3C105.501 67.7 104.701 68 103.601 68C103.301 68 102.701 68 101.801 68C101.901 66.8 101.901 65.5 101.901 64C101.901 62.6 101.901 61.4 101.801 60.4H106.701V61.3C105.301 61.3 104.001 61.2 102.801 61.2C102.801 61.8 102.801 62.6 102.801 63.6C103.201 63.6 103.501 63.6 103.801 63.6C104.801 63.6 105.501 63.7 106.001 63.9C106.801 64.1 107.201 64.7 107.201 65.6ZM106.201 65.7C106.201 64.7 105.301 64.3 103.601 64.3C103.301 64.3 103.001 64.3 102.801 64.3C102.801 65.3 102.801 66.3 102.901 67.1C103.001 67.1 103.301 67.2 103.701 67.2C104.601 67.2 105.301 67.1 105.701 66.8C106.101 66.5 106.201 66.2 106.201 65.7Z" fill="black"/>
<path d="M113.799 62.2C113.799 63.1 113.499 63.8 112.799 64.2C112.099 64.6 111.199 64.9 110.099 64.9C109.999 64.9 109.799 64.9 109.699 64.9C109.699 65.8 109.699 66.8 109.799 68H108.699C108.799 66.9 108.799 65.6 108.799 64C108.799 62.7 108.799 61.4 108.699 60.4H109.499C109.599 60.4 109.799 60.4 110.299 60.4C110.799 60.4 111.099 60.4 111.399 60.4C112.199 60.4 112.699 60.6 113.199 60.9C113.699 61.2 113.799 61.6 113.799 62.2ZM112.899 62.5C112.899 61.5 112.199 61 110.799 61C110.499 61 110.099 61 109.699 61.1C109.699 61.7 109.699 62.7 109.699 64.1C109.799 64.1 109.999 64.1 110.199 64.1C111.999 64.1 112.899 63.6 112.899 62.5Z" fill="black"/>
<path d="M121.501 67.9H120.301C120.301 67.6 120.101 66.8 119.601 65.4H116.201C115.701 66.8 115.501 67.6 115.501 67.9H114.301C114.301 67.8 114.801 66.5 115.801 64.2C116.801 61.9 117.301 60.6 117.301 60.3H118.701C118.701 60.5 119.201 61.8 120.101 64.1C121.001 66.4 121.501 67.7 121.501 67.9ZM119.301 64.7C118.401 62.4 117.901 61.2 117.901 61H117.801C117.801 61.1 117.301 62.3 116.401 64.7H119.301Z" fill="black"/>
<path d="M127.4 65.7C127.4 66.4 127.1 67 126.6 67.5C126.1 68 125.3 68.2 124.4 68.2C123.4 68.2 122.6 68.1 122 67.8L122.1 66.9C122.9 67.2 123.6 67.4 124.4 67.4C125.7 67.4 126.4 66.9 126.4 65.9C126.4 65.4 126.2 65 125.7 64.8C125.2 64.6 124.7 64.5 123.9 64.5C123.6 64.5 123.3 64.5 123 64.5L123.1 63.6C123.3 63.6 123.6 63.6 124 63.6C125.3 63.6 125.9 63.2 125.9 62.3C125.9 61.5 125.3 61.1 124.1 61.1C123.3 61.1 122.7 61.2 122.1 61.5L122.2 60.6C122.7 60.4 123.5 60.3 124.5 60.3C125.3 60.3 125.8 60.5 126.2 60.8C126.6 61.1 126.8 61.5 126.8 62C126.8 62.8 126.4 63.4 125.5 63.8V63.9C126.9 64 127.4 64.6 127.4 65.7Z" fill="black"/>
<path d="M135.802 64C135.802 65.3 135.402 66.3 134.702 67C134.002 67.7 133.102 68.1 132.102 68.1C131.202 68.1 130.402 67.8 129.702 67.1C129.002 66.4 128.602 65.5 128.602 64.3C128.602 63 129.002 62 129.702 61.3C130.402 60.6 131.302 60.2 132.302 60.2C133.202 60.2 134.002 60.5 134.702 61.2C135.402 61.9 135.802 62.8 135.802 64ZM134.702 64.1C134.702 63.1 134.402 62.3 133.902 61.8C133.402 61.3 132.802 61 132.102 61C131.502 61 130.902 61.3 130.402 61.9C129.902 62.5 129.602 63.3 129.602 64.2C129.602 65.2 129.902 66 130.402 66.5C130.902 67 131.502 67.3 132.202 67.3C132.802 67.3 133.402 67 133.902 66.4C134.402 65.8 134.702 65.1 134.702 64.1Z" fill="black"/>
<path d="M142.798 65.6C142.798 66.4 142.498 66.9 141.798 67.4C141.198 67.8 140.298 68 139.198 68C138.898 68 138.298 68 137.398 68C137.498 66.8 137.498 65.5 137.498 64C137.498 62.6 137.498 61.4 137.398 60.4H138.098C138.198 60.4 138.498 60.4 138.898 60.4C139.298 60.4 139.598 60.4 139.798 60.4C141.398 60.4 142.198 61 142.198 62.1C142.198 63 141.798 63.6 140.998 63.8V63.9C142.198 64 142.798 64.6 142.798 65.6ZM141.298 62.2C141.298 61.4 140.798 61 139.698 61C139.198 61 138.698 61 138.398 61.1C138.398 61.4 138.398 62.2 138.398 63.5C138.598 63.5 138.798 63.5 138.998 63.5C139.798 63.5 140.298 63.4 140.698 63.2C141.098 63.1 141.298 62.7 141.298 62.2ZM141.798 65.7C141.798 64.7 140.898 64.3 139.198 64.3C138.898 64.3 138.598 64.3 138.398 64.3C138.398 65.3 138.398 66.3 138.498 67.1C138.598 67.1 138.898 67.2 139.298 67.2C140.198 67.2 140.898 67.1 141.298 66.8C141.598 66.6 141.798 66.2 141.798 65.7Z" fill="black"/>
<path d="M150.7 67.9H149.5C149.5 67.6 149.3 66.8 148.8 65.4H145.4C144.9 66.8 144.7 67.6 144.7 67.9H143.5C143.5 67.8 144 66.5 145 64.2C146 61.9 146.5 60.6 146.5 60.3H147.9C147.9 60.5 148.4 61.8 149.3 64.1C150.2 66.4 150.7 67.7 150.7 67.9ZM148.4 64.7C147.5 62.4 147 61.2 147 61C147 61.1 146.5 62.3 145.6 64.7H148.4Z" fill="black"/>
<path d="M157.5 67.9H156.4C156.4 66.5 156.5 65.3 156.5 64.3H153C153 65.2 153 66.4 153.1 67.9H152C152.1 66.5 152.1 65.1 152.1 63.9C152.1 62.6 152.1 61.4 152 60.3H153C153 61.4 152.9 62.5 152.9 63.6H156.4C156.4 62.8 156.4 61.7 156.3 60.3H157.4C157.3 61.4 157.3 62.6 157.3 63.9C157.4 65.4 157.4 66.7 157.5 67.9Z" fill="black"/>
<path d="M165.602 67.9H164.502C164.602 67.2 164.602 66.1 164.602 64.6C164.602 63.9 164.602 63.1 164.602 62.1H164.502C164.402 62.5 163.602 63.5 162.302 65.1C161.102 66.6 160.402 67.5 160.402 67.9H159.602C159.702 66.9 159.702 65.7 159.702 64.3C159.702 62.9 159.702 61.6 159.602 60.3H160.702C160.602 61.4 160.602 62.5 160.602 63.9C160.602 64.6 160.602 65.3 160.502 66.1H160.602C160.802 65.7 161.502 64.7 162.802 63.1C164.002 61.7 164.602 60.7 164.602 60.3H165.402C165.302 61.6 165.302 62.9 165.302 64.3C165.502 65.7 165.502 66.9 165.602 67.9Z" fill="black"/>
<path d="M172.7 67.9H171.6C171.6 67 171.7 65.9 171.7 64.6C171.4 64.6 171.1 64.6 170.8 64.6C170.1 64.6 169.6 64.8 169.2 65.2C168.8 65.6 168.5 66.3 168.2 67.5C168.1 67.7 168.1 67.8 168.1 67.9H167C167 67.8 167.1 67.6 167.2 67.3C167.6 66.2 167.9 65.4 168.1 65.1C168.3 64.8 168.7 64.5 169.2 64.4V64.3C168 64.1 167.5 63.4 167.5 62.3C167.5 60.9 168.5 60.2 170.4 60.2C170.7 60.2 171 60.2 171.4 60.2C171.8 60.2 172 60.2 172 60.2H172.8C172.7 61.2 172.7 62.4 172.7 63.8C172.6 65.4 172.7 66.7 172.7 67.9ZM171.7 63.9C171.7 63 171.7 62.1 171.6 61.1C171 61.1 170.6 61 170.2 61C169.6 61 169.1 61.1 168.8 61.3C168.5 61.5 168.4 61.8 168.4 62.2C168.4 63.3 169.2 63.8 170.9 63.8C171.3 63.9 171.5 63.9 171.7 63.9Z" fill="black"/>
</g>
<defs>
<clipPath id="clip0">
<rect width="166.6" height="51.2" fill="white" transform="translate(93 17)"/>
</clipPath>
</defs>
</svg>
